<?xml version="1.0" standalone="no"?>
<!DOCTYPE svg PUBLIC "-//W3C//DTD SVG 1.1//EN" "http://www.w3.org/Graphics/SVG/1.1/DTD/svg11.dtd" >
<svg xmlns="http://www.w3.org/2000/svg">
<metadata>
This is a custom SVG webfont generated by Font Squirrel.
Copyright   : Created by SauterUTOWNHALLSauterS152125268815541349 with FontForge 10 httpfontforgesfnet
</metadata>
<defs>
<font id="OCRAMedium" horiz-adv-x="1464" >
<font-face units-per-em="2048" ascent="1638" descent="-410" />
<missing-glyph horiz-adv-x="500" />
<glyph unicode=" " />
<glyph unicode="!" d="M555 139q0 57 6 76q6 18 25 35q20 20 49 26l70 3q68 0 88 -11q31 -14 45 -45q10 -20 10 -84q0 -63 -10 -84q-14 -31 -45 -45q-20 -10 -86 -10l-78 4q-4 0 -8 2q-18 6 -35 23q-18 18 -25 34q-6 19 -6 76zM555 1423q2 18 10 37q10 20 27 33q20 16 47 20h66q68 0 88 -8 q31 -14 45 -45q8 -18 10 -37l-25 -383q-25 -371 -24 -376q-4 -35 -31 -60q-16 -14 -37 -22l-31 -4q-18 0 -28 4q-59 20 -68 82z" />
<glyph unicode="&#x22;" d="M219 1405v55v56h483h484v-72v-70l-6 -26l-4 -29h-5h-4l-39 -205l-43 -215q-12 -53 -71 -72h-45h-2q-55 14 -70 70q-2 6 -43 213l-41 209h-113h-110l-41 -209q-41 -207 -43 -213q-14 -53 -70 -70q-8 -2 -22 -2q-20 0 -37 6q-43 16 -58 58q-2 10 -38 201l-50 251z" />
<glyph unicode="#" d="M219 676q0 68 72 94q8 2 63 4h58v107v108h-58q-55 0 -63 4q-68 29 -72 94q0 70 72 95q8 4 63 4h58v119q0 129 6 147q6 16 22 33q23 23 52 28l43 -2l18 -6q29 -14 43 -45q10 -20 10 -86v-63v-125h96h95v119q0 129 6 147q6 16 22 33q16 18 35 24q27 8 51 4q12 -2 27 -8 q29 -14 43 -45q10 -20 10 -86v-63v-125h53q51 0 60 -2q63 -12 78 -74q2 -10 2 -23q0 -63 -58 -90q-10 -4 -22 -6q-8 -2 -60 -2h-53v-108v-107h53q51 0 60 -2q63 -12 78 -74q2 -10 2 -22q0 -63 -58 -90q-10 -4 -22 -6q-8 -2 -60 -2h-53v-121q0 -119 -2 -129q-10 -61 -71 -78 q-12 -2 -25 -2q-61 0 -88 57q-4 10 -8 23v129v121h-97h-94v-121v-129q-12 -61 -74 -78q-12 -2 -24 -2q-63 0 -90 59q-4 10 -6 21v129v121h-58q-55 0 -63 4q-68 20 -72 94zM606 774h94h97v107v108h-97h-94v-108v-107z" />
<glyph unicode="$" d="M219 428q0 70 72 94l8 2h346l344 2v66v67h-340q-350 0 -366 7q-18 8 -35 24q-23 23 -29 51v363q6 31 29 51q16 18 35 25q18 6 174 6h147v119q0 129 6 147q6 16 23 33q23 23 51 28l43 -2l18 -6q29 -14 43 -45q10 -20 11 -86v-63v-125h149q147 0 156 -2q63 -12 78 -74 q2 -10 2 -23q0 -63 -58 -90q-10 -4 -22 -6q-8 -2 -348 -2h-342v-65v-68h346q344 0 352 -2q23 -8 37 -20q16 -12 27 -33q8 -18 10 -88v-121q0 -188 -10 -207q-14 -31 -46 -45q-20 -10 -86 -10h-92h-153v-125q0 -131 -11 -150q-14 -31 -43 -45q-29 -12 -55 -10q-10 2 -22 6 q-18 6 -35 23q-16 18 -23 34q-6 18 -6 146v121h-153h-152l-8 2q-68 22 -72 96z" />
<glyph unicode="%" d="M219 266q0 27 12 45q4 8 390 502q385 494 397 508q12 12 22 16q14 8 29 11q4 2 18 2l35 -7l8 -4q12 -6 25 -18q12 -12 19 -25q10 -23 10 -45l-6 -37q-2 -6 -9 -14q-4 -6 -389 -502q-385 -494 -397 -505q-12 -10 -23 -17q-23 -10 -49 -10q-37 2 -63 29q-12 12 -19 24 q-12 22 -10 47zM219 1235v199q6 29 29 51q23 23 51 28l117 3q117 -2 137 -11q29 -14 43 -45q10 -20 10 -88q0 2 0 -37q0 -106 -10 -127q-14 -31 -43 -45q-20 -8 -84 -10h-49q-117 0 -137 6q-18 6 -35 25q-23 22 -29 51zM797 180q0 100 6 117q6 18 22 35q23 23 52 28h118 q115 0 135 -10q31 -14 46 -43q10 -20 10 -88q0 2 0 -39q0 -104 -10 -125q-14 -31 -46 -45q-20 -10 -86 -10h-47q-117 0 -137 6q-18 6 -35 23q-16 18 -22 34q-6 19 -6 117z" />
<glyph unicode="&#x26;" d="M219 360q0 80 2 91q6 27 27 47q8 8 96 82l86 75l-94 103q-94 100 -98 106q-12 14 -17 35q-2 10 -2 92q0 100 8 135q27 111 123 177q55 35 125 45q16 2 129 2l131 -2q47 -6 92 -29q90 -43 136 -133q23 -47 26 -99l2 -100v-84l-2 -8q-8 -20 -18 -35q-6 -6 -129 -110 q-123 -106 -125 -109q-2 -2 49 -57l51 -56q104 -111 107 -110l51 43q59 51 76 57q20 8 45 6h10q59 -12 76 -71q2 -12 2 -25q0 -35 -21 -61q-6 -8 -57 -52l-49 -41l4 -4q4 -4 53 -57t53 -57q27 -39 13 -86q-6 -25 -27 -43q-35 -33 -84 -25l-25 8q-16 8 -79 74q-55 61 -58 61 l-71 -61q-70 -59 -76 -66q-14 -10 -33 -16q-8 -2 -119 -2l-127 2q-145 16 -221 141q-33 55 -39 119q-2 16 -2 98zM414 383l2 -53q0 -59 8 -78q20 -39 61 -53q10 -2 95 -2h86l51 43q51 45 53 47l4 2l-104 112q-102 111 -105 111l-76 -66zM414 961l82 -89q82 -88 84 -88 l108 90l109 93l-2 53q0 59 -11 80q-18 39 -61 51q-6 2 -115 2h-112q-59 -10 -78 -70q-2 -10 -2 -65z" />
<glyph unicode="'" d="M508 741v340v351q4 18 12 34q14 23 35 35q14 8 33 12l117 3q117 -2 137 -11q29 -14 43 -45q6 -10 8 -18l2 -39l-201 -684q-12 -33 -47 -49q-25 -12 -53 -8l-29 6q-41 18 -55 63z" />
<glyph unicode="(" d="M508 537v221v219l2 20q14 98 70 174l243 314q23 23 54 28l41 -2h2q51 -14 67 -63l4 -31q0 -18 -4 -31q-4 -12 -10 -20q-6 -10 -121 -158q-115 -147 -121 -155q-23 -33 -28 -74q-2 -12 -2 -221t2 -221q6 -41 28 -74q6 -10 121 -158q115 -147 121 -155t10 -21q4 -12 4 -31 l-4 -30q-23 -63 -88 -68q-27 -2 -51 12l-25 19l-243 313q-55 76 -70 174z" />
<glyph unicode=")" d="M412 98q0 16 2 27q6 18 61 90l119 152q70 90 74 96q23 33 28 74q2 12 2 221t-2 221q-6 41 -28 72q-4 8 -74 98l-119 151q-55 70 -61 91q-2 8 -2 26q0 16 2 27q6 18 18 35q25 31 64 34q20 4 41 -4q12 -2 22 -8q16 -10 143 -174q117 -147 123 -158q53 -76 68 -172l2 -20 v-219v-221l-2 -19q-14 -96 -68 -172q-6 -10 -123 -160q-127 -162 -143 -172q-25 -14 -57 -14q-18 2 -37 10q-37 18 -51 62q-2 8 -2 26z" />
<glyph unicode="*" d="M219 428q0 41 31 70q8 8 153 133t146 127l-146 125q-145 125 -153 133q-31 31 -31 71q0 33 19 60q20 25 51 35q12 2 26 4l39 -8q6 -2 13 -7q6 -4 120 -102l115 -98l2 149v150l2 8q18 55 72 70l27 2q23 -2 40 -11q37 -18 52 -61l2 -8v-150l2 -149l112 96q115 98 119 100 q27 20 68 17q63 -8 82 -70l2 -27l-6 -36l-4 -9q-6 -10 -17 -22q-12 -12 -158 -137l-145 -125q0 -2 145 -127q145 -123 158 -135q10 -12 17 -23q10 -23 10 -45q0 -23 -10 -43q-23 -47 -74 -55q-23 -2 -45 6q-12 4 -23 10q-4 4 -119 100l-112 99l-2 -150v-149l-2 -8 q-14 -43 -52 -62q-18 -10 -40 -10l-25 2q-55 12 -74 70l-2 8v149l-2 150l-115 -99q-115 -98 -120 -102q-23 -14 -52 -14q-14 0 -26 4q-31 10 -51 35q-19 26 -19 59z" />
<glyph unicode="+" d="M219 758q0 70 72 94l8 4h152h153v148q0 156 6 174q6 16 23 34q23 20 51 27h43q6 -2 18 -8q29 -14 43 -45q10 -18 11 -86v-92v-152h149q147 0 156 -2q63 -12 78 -72q2 -12 2 -24q0 -63 -58 -88q-10 -6 -22 -8q-8 -2 -156 -3h-149v-151q0 -160 -11 -178q-14 -31 -43 -45 t-55 -11q-10 2 -22 7q-18 6 -35 22q-16 16 -23 35q-6 18 -6 174v147h-153l-152 3l-8 2q-68 20 -72 94z" />
<glyph unicode="," d="M412 608q2 6 2 10q6 20 18 35q25 31 64 37h209q213 0 233 -10q29 -14 43 -43q10 -20 10 -88v-203q0 -272 -10 -291q-14 -31 -43 -45q-29 -12 -55 -10q-10 2 -23 6q-18 6 -35 23q-16 18 -22 34q-6 18 -6 230v203h-154q-158 0 -178 10q-37 18 -51 61z" />
<glyph unicode="-" d="M219 717q0 57 6 76q6 16 23 34q23 20 51 27l408 2q397 0 405 -2q23 -8 37 -20q16 -12 27 -33q10 -20 10 -84q0 -63 -10 -84q-10 -20 -27 -33q-14 -12 -37 -20q-8 -2 -403 -2l-406 2q-20 2 -37 12q-20 12 -35 35q-4 6 -6 14q-6 19 -6 76z" />
<glyph unicode="." d="M508 328v198q6 31 29 54q23 20 51 26l117 2q117 0 137 -10q29 -14 43 -45q10 -20 10 -88q0 2 0 -37q0 -106 -10 -127q-14 -29 -43 -43q-20 -10 -88 -10h-47q-115 -2 -136 4q-18 8 -34 24q-23 23 -29 52z" />
<glyph unicode="/" d="M219 115q2 12 6 22l779 1329q23 39 67 47q20 4 43 -2q12 -4 25 -10q25 -16 37 -43t8 -55l-8 -25l-777 -1329q-29 -49 -88 -49q-66 4 -88 68q-2 4 -2 8q-4 19 -2 39z" />
<glyph unicode="0" d="M219 625v133q0 586 6 608q25 100 121 137q20 8 45 10q8 2 309 3q313 0 338 -7q100 -27 136 -123q8 -23 10 -47l2 -589v-580l-4 -12q-10 -49 -41 -86q-51 -61 -131 -70l-316 -2h-305l-12 4q-70 16 -115 68q-27 35 -37 75q-6 25 -6 478zM414 197h288h287v561v561h-287h-288 v-561v-561z" />
<glyph unicode="1" d="M219 98q0 68 72 95l8 2l152 2h153v561v561h-153h-152l-8 4q-45 12 -64 53q-12 25 -8 54q2 14 8 28q20 47 74 55q6 2 252 3h246v-660v-659h96h94v202q0 209 6 228l9 16q12 20 34 35q16 8 39 12q20 2 41 -4q12 -4 23 -10q20 -14 30 -33q10 -16 13 -37l2 -266 q0 -266 -10 -285q-14 -31 -46 -45q-10 -6 -18 -8t-410 -2h-401l-10 4q-68 26 -72 94z" />
<glyph unicode="2" d="M219 0v342v342l2 12q14 63 60 105q49 47 118 53q16 2 303 2h287v231v232h-344h-346l-8 4q-45 12 -64 53q-12 25 -8 54q2 14 8 28q20 47 74 55q6 2 354 3q358 0 383 -7q100 -27 136 -125q8 -18 10 -41v-512q-10 -70 -60 -116q-39 -37 -92 -51l-14 -2l-301 -3h-301 q-2 0 -2 -231v-231h342q340 0 348 -2q63 -12 78 -74q2 -10 2 -23q0 -66 -60 -90l-20 -6l-447 -2h-438z" />
<glyph unicode="3" d="M219 98q0 70 72 95l8 2l346 2h344v190q0 199 -10 217q-14 31 -45 45q-18 10 -100 10h-134q-215 2 -235 11q-37 18 -51 61q-2 10 -2 27q0 18 2 26q14 43 51 62q20 10 90 10h145h209l11 4q51 16 67 70q2 8 2 198v191h-344h-346l-8 4q-45 12 -64 53q-12 25 -8 54q2 14 8 28 q20 47 74 55q6 2 354 3q358 0 383 -7q100 -27 136 -125q8 -18 10 -41v-419v-2q-10 -84 -64 -150l-8 -12l6 -12q33 -39 49 -86q10 -25 15 -56l4 -16v-209v-209l-4 -12q-10 -51 -41 -88q-51 -61 -131 -70l-361 -2h-350l-8 4q-68 20 -72 94z" />
<glyph unicode="4" d="M266 496v465q0 475 6 491t25 33q20 23 49 28l43 -2q20 -4 37 -18q25 -20 35 -51q2 -8 2 -379v-373h190h191v289v291l4 8q16 57 72 70l26 2q20 -2 39 -11q39 -18 51 -61l4 -8v-289v-291h9q55 -6 79 -57q10 -25 9 -51l-9 -29q-25 -51 -79 -57l-9 -2v-207q-2 -213 -10 -232 q-14 -31 -45 -45q-27 -12 -55 -10q-10 2 -21 6q-18 6 -35 23q-18 18 -24 34q-6 18 -6 230v203h-289h-289z" />
<glyph unicode="5" d="M219 195q2 14 10 28q27 57 90 56q14 0 27 -5q8 -4 90 -38q80 -35 88 -37q6 -2 236 -2h229v231v231h-289h-288v428v429h342q342 0 350 -3q63 -12 78 -73q2 -10 2 -23q0 -63 -58 -90q-10 -4 -22 -6q-8 -2 -252 -2h-246v-232v-231h199q209 0 233 -6q102 -27 136 -125 q8 -23 10 -43l2 -262v-250l-4 -12q-10 -49 -41 -86q-41 -49 -103 -66q-25 -6 -270 -6q-236 0 -256 2q-29 4 -55 12l-191 82q-27 16 -39 43q-12 25 -8 56z" />
<glyph unicode="6" d="M219 82v1352q6 29 29 51q23 23 51 28h131q31 -6 53 -28q27 -29 27 -68q0 -63 -59 -90q-12 -6 -25 -8h-12v-313v-316h346q344 0 352 -2q23 -6 37 -18q16 -14 27 -33q8 -20 10 -88v-203q0 -272 -10 -291q-10 -20 -27 -32q-14 -12 -37 -21q-8 -2 -403 -2l-406 2 q-20 2 -37 12q-20 12 -35 35q-8 15 -12 33zM414 197h288h287v149v150h-287h-288v-150v-149z" />
<glyph unicode="7" d="M219 1376q0 57 6 76q6 16 23 33q23 23 51 28q8 2 446 3h441v-302q0 -309 -6 -325q-6 -18 -21 -33q-8 -8 -184 -158l-176 -151v-234q0 -240 -11 -258q-14 -31 -43 -45q-29 -12 -55 -10q-10 2 -22 6q-18 6 -35 23q-16 18 -23 34q-6 18 -6 248v35q0 264 6 281q6 16 21 32 q8 8 182 158l176 150v176v176h-289h-286l-2 -4q-2 -16 -11 -29q-12 -23 -32 -35q-27 -16 -64 -14q-35 4 -59 31q-14 16 -21 32q-6 19 -6 76z" />
<glyph unicode="8" d="M219 428q0 256 6 281q25 98 121 135q27 10 53 12h13v285q0 293 6 311q6 16 22 33q23 23 52 28l213 3q213 -2 233 -11q29 -14 43 -45q10 -18 10 -84v-231v-289h6q16 0 41 -6q98 -25 133 -119q6 -14 9 -26q6 -25 6 -285v-250l-4 -12q-10 -49 -41 -86q-51 -61 -131 -70 l-316 -2h-305l-12 4q-70 16 -115 68q-27 35 -37 75q-6 25 -6 281zM414 197h288h287v231v231h-287h-288v-231v-231zM606 856h94h97v231v232h-97h-94v-232v-231z" />
<glyph unicode="9" d="M219 905v529q6 29 29 51q23 23 51 28l408 3q397 -2 405 -5q23 -6 37 -18q25 -20 35 -51q2 -8 2 -684t-2 -684q-4 -8 -8 -19q-14 -31 -46 -45q-20 -10 -86 -10l-77 4q-4 0 -11 2q-18 6 -32 21q-18 18 -27 45q-6 23 -2 45q2 14 8 24q23 47 76 54l10 2v313v313h-340 q-350 0 -366 8q-18 6 -35 23q-23 22 -29 51zM414 1020h288h287v149v150h-287h-288v-150v-149z" />
<glyph unicode=":" d="M508 328v198q6 31 29 54q23 20 51 26l117 2q117 0 137 -10q29 -14 43 -45q10 -20 10 -88q0 2 0 -37q0 -106 -10 -127q-14 -29 -43 -43q-20 -10 -88 -10h-47q-115 -2 -136 4q-18 8 -34 24q-23 23 -29 52zM508 987v201q6 29 29 51q23 23 51 27l117 2q117 0 137 -11 q29 -14 43 -45q10 -18 10 -88q0 4 0 -37q0 -106 -10 -124q-14 -31 -43 -45q-20 -10 -88 -11h-47q-115 0 -136 6q-18 6 -34 23q-23 22 -29 51z" />
<glyph unicode=";" d="M412 608q2 6 2 10q6 20 18 35q25 31 64 37h209q213 0 233 -10q29 -14 43 -43q10 -20 10 -88v-203q0 -272 -10 -291q-14 -31 -43 -45q-29 -12 -55 -10q-10 2 -23 6q-18 6 -35 23q-16 18 -22 34q-6 18 -6 230v203h-154q-158 0 -178 10q-37 18 -51 61zM412 1071v197 q6 31 28 53q23 20 52 27l116 2q117 0 137 -11q29 -14 43 -45q10 -20 11 -86q0 2 0 -39q0 -104 -11 -125q-14 -31 -43 -45q-20 -8 -88 -10h-47q-115 0 -135 6q-18 6 -35 25q-22 20 -28 51z" />
<glyph unicode="&#x3c;" d="M219 698v117q4 18 12 33q12 20 31 33l778 456q12 8 27 11q6 2 20 2l35 -7l8 -4q12 -6 25 -18q12 -12 19 -25q10 -20 10 -45q0 -49 -39 -77q-8 -6 -357 -211l-348 -205l348 -205q348 -205 357 -211q39 -29 39 -78l-6 -37l-4 -8q-6 -12 -19 -24q-12 -12 -25 -19 q-23 -10 -47 -10q-23 0 -43 10l-778 459q-18 12 -31 31q-8 14 -12 32z" />
<glyph unicode="=" d="M219 604q2 16 8 29q20 47 74 57h399q406 0 422 -6q37 -14 54 -49q27 -57 -17 -107q-23 -27 -57 -32h-406h-397l-8 2q-45 14 -64 55q-12 24 -8 51zM221 1026q4 18 15 33q23 35 65 43h399q406 2 422 -6q37 -14 54 -49q27 -57 -17 -107q-23 -27 -57 -33h-406h-397l-8 2 q-45 14 -64 56q-14 28 -6 61z" />
<glyph unicode="&#x3e;" d="M219 266q0 16 4 27q10 33 39 51q10 6 356 209l345 205l-345 203q-346 203 -356 210q-29 18 -39 50q-4 12 -4 26l4 37q2 6 6 12q6 12 19 25q12 12 22 16q14 8 27 11q6 2 18 2l37 -7l4 -2l781 -458q23 -14 34 -35q8 -14 13 -33v-117q-4 -18 -13 -32q-12 -20 -34 -33 l-781 -459q-18 -8 -45 -8q-37 2 -63 29q-12 12 -19 24q-12 20 -10 47z" />
<glyph unicode="?" d="M219 922q0 43 31 71l584 500q20 16 45 20q23 4 47 -4q12 -4 22 -10l207 -176q18 -18 27 -45l4 -10v-99v-98l-4 -10q-6 -18 -19 -35q-6 -8 -280 -244l-277 -235v-64q0 -72 -6 -90q-6 -16 -20 -33q-23 -25 -56 -28q-49 -10 -86 28q-20 23 -26 50v200q6 29 28 52 q10 10 281 239l268 232v36v37l-22 21l-47 39l-25 22l-260 -221q-260 -223 -266 -227q-31 -20 -68 -15q-14 2 -29 11q-53 27 -53 86zM412 98q0 20 8 39q20 49 76 58l39 -2q53 -14 69 -70v-45v-4q-16 -55 -72 -72h-45h-2q-39 12 -57 41q-16 24 -16 55z" />
<glyph unicode="@" d="M219 469q0 195 2 213q12 98 80 168t166 84q14 4 133 4h121l10 -4q49 -16 66 -68l2 -10v-291l2 -293l4 -10q6 -18 16 -31q12 -16 33 -24q18 -10 41 -10t41 10q35 16 49 55l4 10v453v463q-10 82 -86 117l-14 6q-23 8 -158 8h-22l-162 -2q-74 -8 -129 -84q-4 -8 -10 -16 q-14 -25 -23 -35q-20 -20 -49 -27l-41 2q-53 12 -72 64q-4 12 -4 26l4 37q2 6 6 14q16 33 45 68q31 39 68 68q88 70 197 79h168q166 0 182 -2q115 -18 194 -98q31 -31 50 -61q37 -59 49 -133l4 -15v-465l-2 -483q-14 -102 -88 -174q-66 -63 -160 -80h-78h-4q-80 12 -137 59 q-12 8 -15 11l-12 -9q-59 -47 -139 -61h-78h-6q-92 16 -160 80q-74 72 -86 174q-2 18 -2 213zM416 272l4 -10q14 -45 55 -59q31 -12 62 -2q16 6 30 16q23 16 33 47l2 8v236l2 233h-53q-51 0 -57 -2q-6 0 -17 -4q-45 -14 -59 -63l-2 -8v-195v-197z" />
<glyph unicode="A" d="M219 117l2 4l389 1331q6 16 23 33q23 23 51 28l43 -2l18 -6q29 -14 43 -45q6 -10 199 -674q195 -664 197 -669v-19q0 -63 -58 -90q-19 -8 -38 -8l-27 4q-47 12 -66 59q-2 8 -41 138l-36 129h-218h-215l-39 -131q-37 -131 -40 -138q-10 -29 -37 -45q-27 -18 -54 -18 q-28 0 -55 20q-31 20 -39 58zM543 526h80h157h80l-80 269l-78 270l-79 -268z" />
<glyph unicode="B" d="M219 0v758v758h305l305 -3l19 -2q133 -20 223 -112q29 -29 51 -62q51 -78 62 -176v-147q-14 -141 -113 -238l-18 -18l18 -19q29 -27 51 -61q47 -72 60 -162q4 -20 4 -88t-4 -88q-16 -109 -82 -193q-27 -35 -62 -61q-78 -61 -176 -80q-35 -6 -346 -6h-297zM414 197h202 h201l14 2q94 20 138 104q12 25 16 53q4 12 4 72q0 59 -4 72q-18 96 -104 139q-23 12 -50 18l-14 2h-201h-202v-231v-231zM414 856h202h201l14 4q111 23 148 125q2 10 4 19q6 25 6 92q0 51 -4 63q-18 96 -104 139q-23 10 -50 17l-14 4h-201h-202v-232v-231z" />
<glyph unicode="C" d="M221 707v96v6q8 66 33 123l221 442q76 121 213 139q18 2 213 3l203 -3q63 -12 78 -73q2 -10 2 -23q0 -59 -60 -90q-16 -8 -149 -8h-70q-197 0 -205 -2q-31 -10 -51 -35q-6 -8 -61 -121q-143 -283 -156 -311q-10 -23 -14 -53v-74v-4q4 -31 14 -53q12 -29 156 -314 q55 -111 61 -119q20 -25 51 -34q8 -2 205 -2q203 -2 219 -9q57 -23 60 -90q0 -66 -60 -90l-20 -6h-410q-143 16 -219 139l-221 443q-25 57 -33 123z" />
<glyph unicode="D" d="M219 98q0 70 72 95q8 2 63 4h58v561v561h-58q-55 0 -63 4q-45 12 -64 53q-9 18 -9 39q0 7 1 15q2 14 8 28q20 47 74 55q6 2 199 3l209 -3q139 -16 219 -139q6 -10 112 -221q119 -238 129 -279l5 -10q12 -49 12 -106.5t-12 -106.5t-95 -209q-12 -27 -39 -80 q-106 -211 -114 -223q-25 -41 -64 -73q-66 -53 -149 -64l-217 -2h-197l-8 4q-68 20 -72 94zM606 197h45q49 0 68 10q20 8 35 26q6 8 170 334q47 94 53 111q8 31 12 61q1 8 1 17q0 25 -5 49l-8 33q-6 16 -53 110q-164 324 -170 334q-20 25 -54 35q-6 2 -49 2h-45v-561v-561z " />
<glyph unicode="E" d="M219 0v758v758h438q438 0 447 -3q63 -12 78 -73q2 -10 2 -23q0 -63 -58 -90q-10 -4 -22 -6q-8 -2 -348 -2h-342v-232v-231h153q158 0 178 -10q29 -14 43 -45q10 -18 11 -43q0 -23 -11 -43q-14 -29 -43 -45q-20 -8 -88 -8q-6 0 -90 -3h-153v-231v-231h342q340 0 348 -2 q63 -12 78 -74q2 -10 2 -23q0 -66 -60 -90l-20 -6l-447 -2h-438z" />
<glyph unicode="F" d="M219 416v387v713h438q438 0 447 -3q63 -12 78 -73q2 -10 2 -23q0 -63 -58 -90q-10 -4 -22 -6q-8 -2 -348 -2h-342v-150v-149h250h247l9 -2q51 -16 67 -66q4 -12 4 -30t-4 -29q-16 -49 -67 -66l-9 -2h-247l-250 -2v-370l-2 -379q-6 -23 -19 -37q-14 -16 -33 -27 q-25 -11 -47 -10h-8q-10 2 -22 6q-18 6 -35 23q-16 18 -23 34q-6 19 -6 353z" />
<glyph unicode="G" d="M219 856l2 2q8 100 64 180q10 14 147 195q139 178 154 190q72 76 174 90q16 2 176 3l168 -3q63 -12 78 -73q2 -10 2 -23q0 -61 -60 -90q-16 -8 -145 -8h-37q-170 0 -188 -10q-18 -8 -56 -56q-18 -25 -108 -139q-135 -174 -141 -182q-20 -31 -31 -74l-2 -12v-285 q0 -283 2 -291q12 -45 53 -63q18 -10 94 -10h137q213 0 232 10q31 14 45 45q10 18 10 94q0 -20 0 39v111h-100q-106 0 -125 6q-18 6 -35 22q-16 16 -22 37q-8 20 -7 41q2 10 5 23q8 20 24 37q16 16 35 22q18 6 223 6h199v-207q0 -205 -2 -225q-6 -49 -29 -94 q-63 -127 -203 -158l-24 -4q-20 -2 -226 -2q-221 0 -251 6q-49 12 -93 37q-121 76 -137 219z" />
<glyph unicode="H" d="M219 82v1352q6 29 29 51q23 23 51 28l43 -2l18 -6q29 -14 43 -45q10 -18 11 -84v-231v-289h288h287v285q0 293 6 311q6 16 25 33q16 18 35 24q16 5 32 6l17 -2q14 -2 26 -8q31 -14 46 -45q4 -10 8 -18q2 -8 2 -684t-2 -684q-4 -8 -8 -19q-14 -31 -46 -45q-23 -11 -47 -10 h-8q-10 2 -20 6q-18 6 -35 23q-18 18 -25 34q-6 18 -6 256v56v284h-287h-288v-288q0 -297 -11 -316q-14 -31 -43 -45q-25 -11 -47 -10h-8q-10 2 -22 6q-18 6 -35 23q-23 22 -29 53z" />
<glyph unicode="I" d="M219 98q0 68 72 95l8 2l152 2h153v561v561h-153h-152l-8 4q-45 12 -64 53q-9 18 -9 39q0 7 1 15q2 14 8 28q20 47 74 55q6 2 399 3l404 -3q63 -12 78 -73q2 -10 2 -23q0 -63 -58 -90q-10 -4 -22 -6q-8 -2 -156 -2h-149v-561v-561h149q156 0 174 -7q37 -14 54 -51 q10 -22 10 -42q0 -33 -27 -64l-24 -21l-33 -10l-406 -2h-397l-8 4q-68 20 -72 94z" />
<glyph unicode="J" d="M315 610q4 18 13 33q14 20 34 35q16 8 39 12q20 2 41 -4q12 -4 23 -10q29 -18 39 -47q6 -16 6 -164v-23q2 -172 10 -190q20 -39 64 -53l8 -2h108q117 0 136 10q41 18 53 63q2 6 4 584q0 580 2 586q8 29 29 49q20 18 49 24l41 -2q23 -4 39 -18q23 -20 32 -51q2 -8 2 -586 l-2 -596q-4 -37 -14 -65q-49 -131 -180 -179q-31 -10 -66 -14h-247q-145 16 -222 141q-33 55 -39 119z" />
<glyph unicode="K" d="M219 82v1352q6 29 29 51q23 23 51 28l43 -2l18 -6q29 -14 43 -45q10 -18 11 -88v-170l2 -231l303 260q303 260 311 264q26 20 57 20q8 0 15 -2q10 -2 18 -4q39 -14 56 -51q10 -21 9 -41q0 -18 -7 -37l-19 -28l-6 -6q-6 -6 -346 -297l-340 -291q0 -2 340 -291 q340 -291 346 -297q31 -31 31 -72q0 -43 -31 -71q-28 -27 -64 -27q-11 0 -22 2l-35 16h-2q-8 6 -311 267l-303 258l-2 -232q0 -238 -11 -256q-14 -31 -43 -45q-25 -11 -47 -10h-8q-10 2 -22 6q-18 6 -35 23q-23 22 -29 53z" />
<glyph unicode="L" d="M219 0v713q0 723 6 739t23 33q23 23 51 28l43 -2q20 -4 37 -18q23 -20 33 -51q2 -8 2 -627v-618h342q340 0 348 -2q63 -12 78 -74q2 -10 2 -23q0 -66 -60 -90l-20 -6l-447 -2h-438z" />
<glyph unicode="M" d="M219 416v387v713h121h123l14 -19l113 -164l106 -151l6 -6l119 170l119 170h123h123v-717q0 -719 -2 -725q-14 -45 -54 -64q-23 -11 -47 -10h-8q-10 2 -20 6q-18 6 -33 21q-20 18 -31 49q-2 6 -2 588v579l-94 -135l-96 -135v-29q0 -49 -13 -72q-12 -18 -32 -32 q-24 -15 -56 -15h-8q-23 2 -39 13q-29 18 -41 47q-6 18 -6 55l-2 35l-94 133l-92 133l-2 -579q0 -582 -2 -588q-12 -45 -52 -64q-25 -11 -47 -10h-8q-10 2 -22 6q-18 6 -35 23q-16 18 -23 34q-6 19 -6 353z" />
<glyph unicode="N" d="M219 416v387v713h129l129 -3l12 -28l256 -584l244 -553v543q0 543 2 549q10 29 31 49q14 14 33 20q25 8 49 4q14 -2 26 -8q39 -20 54 -63q2 -8 2 -725v-717h-129h-131l-256 584l-254 581l-2 -542q0 -543 -2 -549q-12 -45 -52 -64q-25 -11 -47 -10h-8q-10 2 -22 6 q-18 6 -35 23q-16 18 -23 34q-6 19 -6 353z" />
<glyph unicode="O" d="M221 707v96v6q8 61 29 115l235 471q49 80 138 106q23 8 49 12q10 2 28 3q88 0 160 -58q23 -16 39 -39q12 -14 21 -28q8 -12 118 -236q111 -221 119 -240q29 -80 29 -161q0 -23 -2 -45q-6 -39 -17 -76q-10 -37 -129 -275q-111 -221 -118 -233q-14 -25 -35 -47 q-76 -78 -177 -78q-24 0 -49 4q-37 6 -69 23q-66 31 -105 94l-235 471q-21 54 -29 115zM418 719q4 -29 14 -51q4 -12 113 -230q106 -217 114 -225q12 -12 29 -14q8 -3 16 -3l21 5q10 4 18 12q6 8 68 131l111 221q49 96 55 113q13 39 12 79v11v8q-4 31 -12 62q-6 16 -55 112 l-111 221q-61 123 -68 129q-12 12 -28 17q-7 1 -13 1q-13 0 -24 -5q-10 -4 -19 -13q-8 -6 -114 -223q-109 -217 -113 -229q-10 -23 -14 -51v-76v-2z" />
<glyph unicode="P" d="M219 416v387v713h350q362 -2 385 -9q6 0 9 -2q135 -33 194 -159q20 -45 27 -93v-411v-2q-16 -145 -142 -222q-53 -31 -114 -38q-20 -2 -266 -2h-248v-248q0 -256 -11 -275q-14 -31 -43 -45q-25 -11 -47 -10h-8q-10 2 -22 6q-18 6 -35 23q-16 18 -23 34q-6 19 -6 353z M414 774h248q254 0 272 10q31 14 45 45q10 18 10 97v121v190l-4 10q-14 53 -70 70q-6 2 -253 2h-248v-272v-273z" />
<glyph unicode="Q" d="M219 449v-67v142v299l4 19q16 109 82 190q23 29 250 223l143 123q104 88 119 99q45 29 101 36q13 2 26 2q40 0 82 -14q29 -10 51 -24q92 -61 107 -172q2 -14 2 -306q0 -305 -6 -340q-20 -117 -105 -202q-14 -16 -88 -78l-72 -62l37 -98l9 -22h67q68 0 76 -2 q63 -12 78 -74q2 -10 2 -23q0 -66 -60 -90l-20 -6l-143 -2h-134l-34 90q-35 90 -37 90l-76 -65q-76 -63 -90 -74q-61 -41 -130 -41q-21 0 -42 4q-37 6 -70 23q-96 47 -123 153q-6 31 -6 269zM416 227l2 -6q8 -14 20 -20q8 -4 19 -4q12 0 18 4q8 4 103 86l100 84l4 4l-37 92 q-37 94 -39 102q-6 23 0 47q4 14 10 27q14 20 35 35q16 8 39 12q20 2 43 -4q12 -4 21 -10q20 -14 32 -33q4 -8 19 -47l24 -64l11 -22l41 35q43 37 53 47q41 41 51 100l4 15v290v291l-4 6q-6 14 -20 21q-7 4 -16 4q-5 0 -11 -2l-12 -4q-6 -2 -400 -340q-55 -47 -63 -55 q-35 -41 -45 -95l-2 -14v-291v-291z" />
<glyph unicode="R" d="M219 416v387v713h350q362 -2 385 -9q6 0 9 -2q135 -33 194 -162l23 -61l4 -31l2 -90q-2 -82 -10 -114q-33 -133 -158 -193l-55 -20q-33 -8 -115 -11h-72l201 -342q199 -342 201 -348q7 -19 7 -37.5t-7 -36.5q-8 -18 -25 -32q-28 -27 -63 -27q-14 0 -29 4q-27 8 -47 29 q-6 8 -15 22l-229 391l-221 377h-68h-67v-370l-2 -379q-6 -23 -19 -37q-14 -16 -33 -27q-25 -11 -47 -10h-8q-10 2 -22 6q-18 6 -35 23q-16 18 -23 34q-6 19 -6 353zM414 1020h248q254 2 272 10q31 14 45 47q10 18 10 92t-10 95q-18 39 -64 53q-6 2 -253 2h-248v-150v-149z " />
<glyph unicode="S" d="M219 238q-1 10 -1 19q0 28 9 48q6 12 19 25q18 20 45 26q10 4 24 4q27 0 47 -12q10 -4 21 -14q29 -27 31 -70q2 -16 4 -24q12 -29 41 -39l8 -4h252h250l6 2q18 8 12 30q0 4 -364 471q-362 465 -369 474q-36 57 -36 120q0 19 3 39q8 45 35 82q55 84 154 98q12 2 270 3 l272 -3q94 -12 158 -77q63 -66 74 -158q2 -13 2 -24q0 -27 -10 -46l-21 -26q-29 -27 -68 -27q-14 0 -26 2q-27 8 -43 27q-25 27 -29 67q0 14 -4 25q-10 29 -41 39l-8 4h-252h-254l-4 -4q-14 -10 -10 -31q4 -4 364 -469q362 -465 369 -473q29 -43 35 -94q2 -16 2 -32 q0 -87 -68 -153q-41 -41 -98 -55q-29 -8 -250 -8h-49q-256 0 -270 2q-94 12 -158 78t-74 158z" />
<glyph unicode="T" d="M219 1380v136h483h484v-136q0 -145 -8 -163q-14 -39 -54 -56q-16 -6 -37 -6q-25 0 -43 8q-35 18 -49 54q-6 18 -6 65v37h-94h-96v-619q0 -621 -2 -626q-12 -45 -52 -64q-25 -11 -47 -10h-8q-10 2 -22 6q-18 6 -35 23q-16 18 -23 34q-6 18 -6 340v302v614h-96h-94v-37 q0 -47 -6 -65q-14 -39 -56 -56q-16 -6 -37 -6q-23 0 -41 8q-37 18 -49 54q-6 18 -6 163z" />
<glyph unicode="U" d="M219 633v-8v227q0 584 6 600t23 33q23 23 51 28l43 -2q20 -4 37 -18q23 -20 33 -51q2 -8 2 -586q2 -580 4 -586q12 -45 53 -63q18 -10 94 -10h137q213 0 232 10q39 18 53 63q2 6 2 584q0 580 2 586q10 29 31 49q14 14 33 20q16 5 32 6l17 -2q14 -2 26 -8q39 -20 54 -63 q2 -8 2 -586l-2 -596q-6 -51 -29 -96q-63 -127 -203 -158l-24 -4q-20 -2 -226 -2q-207 0 -221 2q-139 16 -215 133q-29 43 -41 96q-6 31 -6 402z" />
<glyph unicode="V" d="M219 1069v178q0 186 6 205q6 16 23 33q23 23 51 28l43 -2l18 -6q29 -14 43 -45q10 -20 11 -90v-100l2 -166l143 -367l143 -366q0 2 144 368l143 367v160q0 168 6 186q6 16 25 33q16 18 35 24q16 5 32 6l17 -2q14 -2 26 -8q31 -14 46 -45q8 -20 10 -88v-121v-182 l-197 -506q-197 -504 -201 -510q-6 -14 -20 -26q-30 -28 -64 -29q-20 0 -42 10l-29 23q-12 10 -21 26q-2 8 -192 494l-195 502z" />
<glyph unicode="W" d="M217 236v589q0 606 8 625q6 18 23 35q23 23 51 28l43 -2q20 -4 37 -18q23 -20 33 -51q2 -8 2 -580v-573l28 -45l27 -47h41h39l26 45l29 47v325q0 334 10 351q18 39 62 53q10 2 24 2q25 0 45 -10q29 -14 43 -45q10 -18 11 -82v-269l2 -325l26 -45l27 -47h41h39l29 47 l26 47v567q0 578 6 594t25 33q16 18 35 24q16 5 32 6l17 -2q14 -2 26 -8q39 -20 54 -63q2 -8 2 -606v-600l-53 -91q-55 -92 -60 -100q-12 -20 -33 -31q-14 -10 -34 -12l-117 -2q-106 0 -117 4q-39 12 -61 49l-9 15q-2 0 -10 -15q-23 -37 -61 -49q-8 -4 -115 -4l-117 2 q-20 2 -37 12q-18 10 -32 33q-6 6 -60 98z" />
<glyph unicode="X" d="M219 115q2 12 6 22q4 6 183 314q180 305 180 307l-180 307q-178 307 -183 313q-7 16 -7 36q0 8 1 16q2 14 8 28q20 47 74 55q8 2 17 2q13 0 26 -4q12 -4 23 -10q18 -12 30 -31q6 -8 156 -264l147 -254l5 4l147 252l152 258q29 49 78 50q10 0 22 -3q29 -6 49 -24 q20 -20 29 -49q3 -11 2 -25v-14q-2 -12 -8 -23q-2 -6 -181 -313l-180 -307q0 -2 180 -307q178 -307 181 -314q9 -19 8 -40q0 -14 -2 -23q-8 -27 -29 -47q-30 -27 -65 -28q-17 0 -35 7q-33 12 -49 43l-152 256l-147 254l-5 4l-147 -256q-150 -254 -156 -264q-18 -27 -47 -37 q-19 -7 -36 -7q-33 0 -62 26q-23 20 -31 51q-3 12 -3 25q0 7 1 14z" />
<glyph unicode="Y" d="M217 1219v98q0 113 8 133q6 18 23 35q23 23 51 28l43 -2l18 -6q29 -14 43 -45q10 -20 11 -86v-14l2 -76l143 -182l143 -182q2 2 146 184l141 182v70q0 78 6 96q6 16 25 33q16 18 35 24q16 5 32 6l17 -2q14 -2 26 -8q31 -14 46 -45q10 -20 10 -86q0 2 0 -47v-108l-49 -64 l-193 -248l-143 -182l-2 -322q0 -330 -11 -348q-14 -31 -43 -45q-25 -11 -47 -10h-8q-10 2 -22 6q-18 6 -35 23q-16 18 -23 34q-6 18 -6 265v80v315l-194 248z" />
<glyph unicode="Z" d="M219 0v63v62l19 33q678 1159 677 1161h-307h-309l-8 4q-45 12 -64 53q-9 18 -9 39q0 7 1 15q2 14 8 28q20 47 74 55q6 2 444 3h441v-62v-63l-19 -31q-680 -1161 -680 -1163h304q305 0 313 -2q63 -12 78 -74q2 -10 2 -23q0 -66 -60 -90l-20 -6l-447 -2h-438z" />
<glyph unicode="[" d="M219 82v1352q6 29 29 51q23 23 51 28h805q63 -12 78 -73q2 -10 2 -23q0 -63 -58 -90q-10 -4 -22 -6q-8 -2 -205 -2h-197v-561v-561h197q197 0 205 -2q63 -12 78 -74q2 -10 2 -23q0 -63 -58 -90q-10 -4 -22 -6h-805q-29 6 -51 27q-23 22 -29 53zM414 197h47h47v561v561 h-47h-47v-561v-561z" />
<glyph unicode="\" d="M219 1430q2 14 8 28q20 47 74 55q23 4 45 -4q12 -4 25 -10q16 -12 28 -33l777 -1329q10 -23 8 -49q0 -6 -2 -14q-8 -27 -29 -47q-45 -41 -100 -21l-33 21q-10 10 -16 22l-779 1329q-10 23 -6 52z" />
<glyph unicode="]" d="M219 98q0 70 72 95l8 2l201 2h200v561v561h-200h-201l-8 4q-45 12 -64 53q-12 25 -8 54q2 14 8 28q20 47 74 55l406 3q397 -2 405 -5q23 -6 37 -18q25 -20 35 -51q2 -8 2 -684t-2 -684q-6 -20 -21 -37q-20 -25 -51 -35q-8 -2 -410 -2h-401l-10 4q-68 26 -72 94zM895 197 h47h47v561v561h-47h-47v-561v-561z" />
<glyph unicode="^" d="M219 342l4 35q2 6 6 12l392 752q14 23 34 33q16 8 31 10h31q33 -6 55 -31q10 -8 14 -16l385 -744q14 -29 13 -59q-8 -63 -70 -82l-16 -4q-27 -4 -54 10q-16 6 -26 18q-8 8 -127 187l-154 231l-37 51l-153 -229q-154 -231 -162 -240q-31 -31 -80 -28q-61 8 -82 65 q-4 13 -4 29z" />
<glyph unicode="_" d="M219 -86q2 14 8 29q20 47 74 55q6 2 399 2q406 0 422 -6q37 -14 54 -51q27 -57 -17 -105q-23 -27 -57 -33l-406 -2l-397 2l-8 2q-45 14 -64 54q-12 24 -8 53z" />
<glyph unicode="`" d="M315 1434q2 14 11 26q20 45 71 53q6 2 111 3q113 0 131 -7q16 -6 33 -20q8 -8 202 -258q193 -248 199 -254l8 -16q18 -47 -8 -91l-22 -24q-8 -6 -17 -10q-20 -10 -45 -11q-31 0 -55 19q-8 4 -299 254t-299 258q-27 33 -21 78z" />
<glyph unicode="a" d="M219 346q0 72 2 90q12 96 80 166q66 70 164 86l16 2h215h215l17 -2q16 -4 28 -6l13 -2l-2 70q-4 70 -4 79q-10 53 -64 72l-12 4l-199 2q-203 0 -223 11q-37 18 -51 61q-2 8 -2 27q0 16 2 26q6 18 18 35q25 29 64 35h204q207 0 238 -8q135 -33 195 -160q20 -45 26 -92 q0 -12 10 -262l13 -367l2 -127q-4 -35 -31 -59q-30 -29 -63 -29q-24 0 -50 14q-37 20 -49 64q-2 8 -2 12v6l-71 -41q-82 -47 -97 -51q-8 -2 -174 -2q-176 0 -209 8q-80 20 -137 80q-68 70 -80 168q-2 18 -2 90zM416 274l2 -8q16 -51 65 -67q8 -2 148 -2h141l105 59l104 61 l-2 50q-2 49 -4 59q-8 29 -31 47q-14 10 -31 16l-12 5h-201h-206q-6 -2 -17 -5q-45 -16 -59 -63l-2 -10v-70v-72z" />
<glyph unicode="b" d="M219 82v1352q6 29 29 51q23 23 51 28l43 -2l18 -6q29 -14 43 -45q10 -18 11 -88v-170l2 -231l39 33q49 43 69 57q43 25 90 35q33 8 136 8q102 0 133 -8q63 -12 116 -54q63 -47 105 -90q53 -55 72 -129q10 -35 10 -184v-82l-2 -242q-12 -96 -78 -163q-25 -25 -98 -86 q-66 -53 -152 -64h-211q-51 6 -96 29q-35 16 -107 78l-26 22l-2 -25q0 -33 -11 -51q-14 -31 -43 -45q-25 -11 -47 -10h-8q-10 2 -22 6q-18 6 -35 23q-23 22 -29 53zM416 553q0 -133 2 -141q4 -20 16 -37q6 -6 94 -82q90 -76 95 -80q12 -8 28 -14q10 -2 99 -2h90l10 2 q20 6 70 49q55 47 65 74l4 12v217q0 215 -2 223q-6 18 -16 33q-6 8 -45 41t-45 39q-14 12 -33 16q-8 2 -94 4l-92 -2q-23 -4 -39 -16q-6 -4 -95 -80q-88 -74 -94 -82q-10 -14 -16 -33l-2 -8v-133z" />
<glyph unicode="c" d="M219 545l2 160q12 96 78 165l203 174q61 47 141 58h461q63 -12 78 -74q2 -12 2 -22q0 -61 -60 -91q-16 -8 -153 -8h-90l-222 -2l-8 -2q-16 -4 -28 -14q-6 -4 -95 -80q-88 -74 -94 -82q-10 -14 -16 -33l-2 -8v-133q0 -133 2 -141q4 -20 16 -37q6 -6 94 -82t95 -80 q12 -8 28 -14q8 -2 230 -2q227 -2 243 -9q57 -23 60 -90q0 -63 -58 -90q-10 -4 -22 -6h-459q-80 8 -141 55l-199 170q-59 57 -78 138q-8 33 -8 180z" />
<glyph unicode="d" d="M219 322l2 460q12 100 78 170q35 37 102 90q53 41 117 54q33 8 135 8q90 0 109 -4q80 -10 141 -56q10 -8 47 -40l39 -33v231q0 231 2 238q10 29 31 47q20 20 47 26l43 -2q20 -4 37 -18q25 -20 35 -51q2 -8 2 -684t-2 -684q-4 -8 -8 -19q-14 -31 -46 -45q-23 -11 -47 -10 h-8q-10 2 -20 6q-18 6 -35 23q-31 31 -31 82v20l-39 -31q-39 -33 -45 -39q-63 -49 -147 -59h-209q-84 10 -148 59q-68 53 -102 91q-68 70 -80 170zM416 551q0 -223 8 -240q10 -20 59 -61q51 -45 72 -51l10 -2h88q96 0 115 10q12 4 82 65l88 74q37 33 47 60l4 10v135v135 l-4 8q-6 23 -18 37l-189 160q-16 12 -35 14h-182q-25 -4 -78 -51q-49 -43 -59 -61q-8 -18 -8 -101v-141z" />
<glyph unicode="e" d="M219 553q0 215 2 233q12 96 78 166q25 25 98 86q63 53 150 64h153q38 1 68 0q89 0 106 -4q4 0 13 -2q68 -14 121 -58q74 -61 96 -86q59 -61 76 -143q6 -31 6 -166v-14q0 -141 -10 -162q-10 -20 -27 -33q-14 -12 -37 -18q-8 -2 -352 -4h-346l2 -39q0 -45 8 -62 q10 -20 59 -61q49 -43 70 -51l10 -2h271q274 -2 290 -9q57 -23 60 -90q0 -66 -60 -90l-20 -6h-555q-84 10 -148 59q-68 53 -102 91q-68 70 -78 170q-2 14 -2 231zM414 608h288h287v80q0 86 -10 107q-6 10 -12 18t-47 43q-49 41 -70 47l-8 2l-135 2q-141 0 -158 -6 q-16 -6 -64 -45q-41 -35 -49 -43q-10 -14 -16 -33l-4 -10v-82z" />
<glyph unicode="f" d="M266 1022q2 4 2 8q12 43 51 62q20 10 82 10l56 2l2 49q0 49 2 66q12 74 49 133q43 68 111 110q72 45 155 51q6 2 137 3q141 0 160 -7q16 -6 31 -20q25 -25 31 -57v-25q-4 -35 -29 -59q-16 -16 -33 -23q-18 -6 -153 -6q-125 0 -136 -2q-82 -10 -116 -84l-6 -14 q-6 -23 -9 -72v-43h101q100 0 108 -2q63 -12 78 -74q2 -12 2 -22q0 -63 -57 -91q-10 -4 -23 -6q-8 -2 -108 -2h-101v-413q0 -414 -2 -420q-6 -23 -20 -37q-12 -16 -33 -27q-23 -11 -47 -10h-8q-10 2 -21 6q-18 6 -35 23q-16 18 -22 34q-8 18 -8 293v-14v156v409h-56 q-61 0 -82 11q-39 18 -51 61z" />
<glyph unicode="g" d="M219 553v33v192q10 102 80 174q35 37 102 90q63 49 146 60h104l111 -2q80 -10 141 -56q10 -8 47 -40l39 -33v24q2 29 8 47q10 29 41 48q16 10 37 12q5 1 10 0l31 -4q10 -2 21 -8q23 -12 34 -35l9 -17q6 -16 6 -331q0 8 0 -240q0 -545 -2 -563q-12 -96 -78 -164 q-25 -27 -98 -86q-68 -55 -158 -66h-234h-221l-8 2q-68 31 -72 97q0 66 64 90l8 4l8 2l223 2h224l8 2q20 6 70 49q55 45 65 74l4 12v146l-2 145l-37 -31q-49 -41 -63 -51q-57 -37 -129 -47h-209q-84 10 -148 59q-68 53 -102 90q-53 55 -72 132q-8 32 -8 188zM416 592 q0 -180 8 -199q10 -18 59 -61q51 -43 72 -49l10 -4h88q96 0 117 10q10 6 76 61l90 78q39 33 49 59l4 13v92v94l-4 8q-6 23 -18 37l-189 160q-16 12 -35 14h-182q-25 -4 -78 -51q-49 -43 -59 -61q-8 -18 -8 -101v-100z" />
<glyph unicode="h" d="M219 82v1352q6 29 29 51q23 23 51 28l43 -2l18 -6q29 -14 43 -45q10 -18 11 -88v-186l2 -248l96 61q98 63 117 74q45 23 98 29l182 -2h2q98 -16 166 -86q70 -72 82 -172l25 -740l-2 -28q-16 -57 -74 -72q-12 -2 -27 -2q-68 4 -90 76q-2 8 -14 377q-12 367 -14 376 q-10 53 -64 72l-12 4h-72q-80 0 -98 -8q-8 -4 -156 -98l-145 -94l-2 -312q0 -319 -11 -338q-14 -31 -43 -45q-25 -11 -47 -10h-8q-10 2 -22 6q-18 6 -35 23q-23 22 -29 53z" />
<glyph unicode="i" d="M315 98q0 66 64 92q4 0 8 3l8 2l105 2h104v354v356h-104h-105l-8 4q-63 18 -72 82q-1 5 0 11q0 11 2 24q14 59 80 74h164q164 0 184 -10q18 -8 33 -25q12 -16 19 -37q2 -8 2 -422v-411h104l105 -2l8 -2q43 -12 61 -52q10 -18 10 -43t-10 -43q-18 -39 -61 -51l-10 -4h-306 h-303l-10 4q-64 31 -72 94zM508 1458q0 57 6 76q6 18 23 35q23 20 51 26l69 2q68 0 88 -10q29 -14 43 -45q10 -20 11 -84q0 -63 -11 -84q-14 -31 -43 -45q-20 -10 -86 -10l-77 4q-4 0 -11 2q-18 6 -34 23q-16 18 -23 34q-6 19 -6 76z" />
<glyph unicode="j" d="M317 -129q2 12 9 25q6 12 18 24t23 17q23 12 45 12q20 0 37 -6q10 -4 20 -13q31 -20 41 -69q14 -55 70 -74l10 -2h112h113l12 4q16 6 31 16q20 16 31 48l2 8v522l2 524h-154q-158 0 -178 11q-39 18 -51 61l-2 43q2 4 2 8q10 31 33 51q23 16 49 21h209q213 0 233 -10 q37 -18 51 -62q2 -8 2 -588l-2 -600q-12 -96 -79 -166q-66 -68 -160 -84l-17 -4h-118l-150 2q-4 2 -12 4q-55 10 -103 41q-104 70 -129 189q-3 14 -3 26t3 21zM797 1458q0 57 6 76q6 18 22 35q23 20 52 26l69 2q68 0 88 -10q29 -14 43 -45q10 -20 10 -84q0 -63 -10 -84 q-14 -31 -43 -45q-20 -10 -86 -10l-78 4l-10 2q-18 6 -35 23q-16 18 -22 34q-6 19 -6 76z" />
<glyph unicode="k" d="M219 82v1352q6 29 29 51q23 23 51 28l43 -2q20 -4 37 -18q23 -20 33 -51q2 -8 2 -404l2 -397l254 219q256 219 262 223q14 10 35 17l43 2q2 -2 4 -2q23 -6 37 -19q38 -30 38 -73q0 -13 -4 -27q-6 -23 -22 -41q-4 -6 -205 -176l-199 -172l242 -207q244 -207 252 -215 q31 -29 31 -72q0 -14 -2 -24q-16 -61 -78 -72q-10 -2 -20 -2q-31 0 -56 20l-516 441l-4 4l-45 -41l-47 -41l-2 -152q0 -158 -11 -176q-14 -31 -43 -45q-25 -11 -47 -10h-8q-10 2 -22 6q-18 6 -35 23q-23 22 -29 53z" />
<glyph unicode="l" d="M315 98q0 66 64 92q4 0 8 3l8 2l105 2h104v561v561h-104h-105l-8 4q-63 18 -72 82q-1 6 0 12q0 12 2 23q14 59 80 73l164 3q164 -2 184 -11q39 -20 52 -63q2 -8 2 -627v-618h104l105 -2l8 -2q43 -12 61 -52q10 -18 10 -43t-10 -43q-18 -39 -61 -51l-10 -4h-306h-303 l-10 4q-64 31 -72 94z" />
<glyph unicode="m" d="M205 82v940q4 29 26 51q23 23 52 29q9 2 17 1q13 0 26 -3q14 -4 24 -10q31 -18 41 -48l2 -6l10 6q55 49 129 60q15 2 30 2q48 0 93 -21q31 -12 58 -34q18 -14 32 -33l5 -6l22 18q31 29 45 37q57 38 123 38q9 0 18 -1h13q74 -10 129 -64q61 -59 71 -145l29 -801 q-2 -18 -10 -37q-14 -31 -45 -45q-16 -8 -37 -10l-37 6q-10 2 -18 8q-23 12 -35 35q-8 14 -12 33q-2 8 -15 401q-14 391 -16 398q-4 14 -19 22l-14 4q-8 -2 -12 -4q-6 -2 -68 -55l-61 -53l-2 -357l-2 -364q-6 -23 -19 -37q-14 -16 -33 -27q-25 -11 -47 -10h-8q-10 2 -22 6 q-16 6 -33 21q-20 18 -29 49q-2 6 -2 403l-2 395l-2 9q-8 14 -20 20q-8 2 -19 2q-12 0 -18 -4q-8 -4 -76 -63l-68 -58v-350q-2 -350 -4 -356q-6 -23 -18 -37q-14 -16 -33 -27q-25 -11 -48 -10h-7q-10 2 -21 6q-18 6 -37 23q-22 22 -26 53z" />
<glyph unicode="n" d="M219 82v940q6 29 29 51q23 23 51 29q8 2 17 1q13 0 26 -3q12 -4 25 -10q29 -18 41 -48q6 -18 6 -63l2 -41l96 61q98 63 117 74q45 23 98 29l182 -2h2q98 -16 166 -86q70 -72 82 -172l25 -740l-2 -28q-16 -57 -74 -72q-12 -2 -27 -2q-59 4 -84 57q-8 18 -12 172 q-2 25 -8 224q-12 367 -14 376q-10 53 -64 72l-12 4h-72q-80 0 -98 -8q-8 -4 -156 -98l-145 -94l-2 -312q0 -319 -11 -338q-14 -31 -43 -45q-25 -11 -47 -10h-8q-10 2 -22 6q-18 6 -35 23q-23 22 -29 53z" />
<glyph unicode="o" d="M219 553q0 215 2 233q12 96 78 166q39 41 104 90q61 47 144 60h160q147 0 159 -2q31 -4 58 -15q47 -18 82 -45q70 -59 92 -82q74 -72 86 -176q2 -16 2 -231q0 -217 -2 -236q-14 -100 -86 -172q-23 -23 -92 -80q-51 -41 -121 -57q-31 -6 -183 -6t-184 6q-63 14 -117 55 q-68 53 -102 91q-68 70 -78 170q-2 14 -2 231zM416 553q0 -225 8 -242q10 -20 59 -61q43 -37 54 -43q20 -10 90 -10h75q143 0 160 8q14 6 62 47q51 43 61 70l4 12v217q0 215 -2 223q-6 20 -18 37l-92 80q-12 8 -29 12q-6 2 -143 4q-141 0 -156 -6q-16 -6 -29 -14l-43 -39 q-49 -41 -57 -68l-4 -10v-217z" />
<glyph unicode="p" d="M219 367v694l2 10q16 57 72 70l41 2q2 0 6 -2q55 -12 72 -70q2 -8 2 -43l2 -35l39 41q39 39 49 47q70 53 155 62l109 -2q66 -10 117 -43q18 -14 61 -51q145 -125 158 -138q63 -66 80 -159q2 -14 2 -199v-184l-4 -17q-16 -92 -76 -155l-197 -170q-66 -53 -151 -64h-105 q-82 10 -149 62q-10 8 -49 47l-41 39v-220q0 -227 -11 -245q-14 -31 -43 -45q-20 -10 -43 -11q-25 0 -45 11q-29 14 -43 45q-6 10 -8 18q-2 9 -2 705zM416 410q4 -20 14 -37l191 -193l4 -2q16 -14 34 -18q10 -4 48 -4q35 0 45 4q20 6 92 65q8 8 26 25q90 76 97 84 q12 14 18 35l4 10v172q0 172 -2 180q-6 18 -16 35l-191 164q-12 10 -28 14l-84 2q-23 -4 -39 -16l-193 -193q-10 -14 -16 -30l-4 -13v-137v-147z" />
<glyph unicode="q" d="M219 322l2 460q12 100 78 170q35 37 102 90q63 49 146 60h104l111 -2q80 -10 141 -56q10 -8 47 -40l39 -33v24q2 29 8 47q10 29 41 48q16 10 37 12q5 1 10 0l31 -4q10 -2 21 -8q23 -12 34 -35q10 -16 13 -35l2 -680q0 -672 -2 -678q-14 -45 -54 -63q-20 -10 -43 -11 q-23 0 -43 11q-31 14 -45 45q-8 18 -10 86v170v231l-39 -31q-39 -33 -45 -39q-63 -49 -147 -59h-209q-84 10 -148 59q-68 53 -102 91q-68 70 -80 170zM416 551q0 -223 8 -240q10 -20 59 -61q51 -45 72 -51l10 -2h88q96 0 115 10q12 4 82 65l88 74q37 33 47 60l4 10v135v135 l-4 8q-6 23 -18 37l-189 160q-16 12 -35 14h-182q-25 -4 -78 -51q-49 -43 -59 -61q-8 -18 -8 -101v-141z" />
<glyph unicode="r" d="M219 82v940q6 29 29 51q23 23 51 29q8 2 17 1q13 0 26 -3q14 -4 25 -10q20 -12 34 -35q4 -8 7 -17q6 -16 6 -88q0 -61 2 -61l112 96q111 96 121 102q12 8 31 13q6 2 123 2q127 0 160 -6q135 -33 194 -160q20 -41 27 -88v-107v-2q-12 -61 -72 -75l-25 -5q-68 0 -92 64 q-2 4 -2 8q-2 10 -4 53v45l-4 13q-6 16 -16 30q-12 14 -33 25q-39 8 -113 8h-86l-162 -137l-161 -137v-275q0 -283 -11 -301q-14 -31 -43 -45q-25 -11 -47 -10h-8q-10 2 -22 6q-18 6 -35 23q-23 22 -29 53z" />
<glyph unicode="s" d="M219 195q2 14 10 28q25 55 86 56h13q29 -4 59 -29q31 -27 64 -39q29 -10 49 -14h207h196l10 2q45 14 64 55q12 21 12 43q0 20 -10 41q-10 25 -31 41q-8 6 -14 8q-8 4 -397 174q-152 68 -162 74q-35 16 -66 49q-59 59 -69 143q-2 15 -2 30q0 48 20 93q14 33 37 60 q66 78 166 92h475q109 -12 182 -90q37 -37 43 -68l2 -41q-2 -4 -2 -6q-4 -12 -8 -18q-26 -53 -82 -54h-4h-12q-41 6 -70 41q-20 27 -53 37l-10 2l-217 2l-226 -2q-27 -6 -41 -31l-4 -18q0 -10 4 -16q6 -18 21 -27q6 -4 184 -84q383 -168 406 -182q76 -51 110 -129 q25 -58 25 -116q0 -18 -2 -36t-6 -37q-35 -139 -164 -200q-31 -14 -64 -23q-31 -6 -256 -6q-209 0 -225 4q-41 6 -90 27q-57 23 -105 59q-35 29 -45 49q-9 18 -9 41q0 7 1 15z" />
<glyph unicode="t" d="M219 1006q0 68 72 94q8 2 63 2l58 2v123q0 131 10 151q20 43 67 54l46 -2q6 -2 18 -9q29 -14 43 -43q10 -20 10 -90v-61v-123l201 -2h201l8 -2q43 -14 61 -51q10 -18 10 -43t-10 -45q-18 -37 -61 -52l-8 -2h-201h-201l2 -317v-318l4 -10q8 -29 29 -45q14 -10 31 -16 l12 -4h113q121 0 141 10q39 20 51 65q8 35 25 56q29 33 78 33q3 0 6 -1q63 -8 82 -67q5 -15 5 -29q0 -7 -1 -14q-16 -113 -107 -184q-57 -47 -127 -60q-31 -6 -147 -6h-15h-118l-17 4q-96 18 -159 84q-68 70 -80 168q-2 18 -2 334v317h-58q-55 0 -63 2q-68 29 -72 97z" />
<glyph unicode="u" d="M219 999q0 27 8 45q20 47 74 58l41 -2q53 -16 70 -72q2 -10 14 -377q12 -369 14 -379q10 -53 64 -71l12 -4h72q80 0 96 8q10 4 158 98l147 96v308q0 315 6 331l9 17q12 23 34 35q16 10 37 12q5 1 10 0l31 -4q10 -2 21 -8q23 -12 34 -35q10 -16 13 -35l2 -475 q0 -465 -2 -471q-8 -23 -21 -37q-20 -27 -51 -33q-12 -3 -25 -3l-24 3l-25 10q-31 16 -41 47q-6 16 -8 64v41l-98 -64q-119 -76 -154 -86q-31 -10 -61 -14h-182h-2q-100 18 -166 86q-70 74 -82 174z" />
<glyph unicode="v" d="M219 922q0 100 6 116q6 18 23 35q23 23 51 29q8 2 17 1q13 0 26 -3q14 -4 25 -10q20 -12 34 -35q4 -8 7 -17q6 -16 6 -102v-76l143 -328q143 -328 145 -327l144 327l143 328v76q0 86 6 102q6 18 25 35q16 16 35 25q15 5 32 4h11q12 0 22 -4q18 -8 35 -25q18 -16 25 -35 q6 -16 6 -116t-8 -121l-332 -756q-14 -20 -33 -31q-14 -8 -33 -12h-155q-18 4 -33 12q-20 10 -33 31l-332 756q-8 21 -8 121z" />
<glyph unicode="w" d="M203 1036q18 53 76 66q8 2 16 1l49 -13q16 -8 27 -23q14 -16 20 -37q2 -8 2 -26q2 -18 10 -289l11 -271l30 -104l31 -104l64 110l65 109v114q0 123 6 142q14 35 47 51q23 10 43 10q23 0 45 -10q33 -16 48 -51q6 -18 6 -142v-114l63 -109l66 -110l30 104l31 104l10 271 q8 270 11 289q2 27 10 45q14 29 45 45q20 10 40 9q18 0 36 -7q20 -6 37 -25q23 -23 26 -53l-8 -297q-10 -287 -12 -299q0 -12 -51 -184q-49 -172 -56 -183q-18 -39 -61 -51q-8 -4 -68 -4l-67 2q-35 4 -58 31q-10 8 -65 104t-58 96l-55 -96l-55 -96l-12 -12q-16 -16 -35 -23 q-18 -6 -80 -6h-8q-59 0 -68 4q-43 12 -61 51q-6 10 -56 183q-51 172 -51 184q-2 12 -12 299q-6 186 -7 262q1 46 3 53z" />
<glyph unicode="x" d="M221 123q4 18 17 33q4 8 170 206l165 201q0 2 -159 195q-158 193 -162 200q-14 25 -12 54q2 20 8 37q23 45 74 53l38 -2q29 -8 48 -27q6 -6 149 -180q143 -172 145 -172q2 2 146 174q143 172 147 178q12 12 31 21q22 11 44 10q35 0 65 -29q27 -27 28 -63l-4 -37l-8 -17 q-4 -8 -162 -200q-160 -193 -160 -195l166 -201q164 -199 170 -206q20 -27 20 -59q0 -13 -3 -27q-8 -25 -29 -43q-28 -27 -63 -27q-14 0 -29 4l-33 16l-14 13q-6 8 -160 192l-152 185l-8 -7l-155 -190q-152 -182 -158 -188q-28 -26 -61 -26q-22 0 -46 11q-33 14 -47 47 q-9 21 -9 42q0 12 3 24z" />
<glyph unicode="y" d="M219 -313q0 68 72 94q8 2 117 4h110l64 147l65 150h-24q-43 0 -68 14q-23 12 -35 35l-295 674q-6 18 -6 117q0 100 6 116q6 18 23 35q23 23 51 29q8 2 17 1q13 0 26 -3q14 -4 25 -10q20 -12 34 -35q4 -8 7 -17q6 -16 6 -102v-76l129 -291l127 -290h32h33l127 290l127 291 v76q0 86 6 102q6 18 25 35q16 16 35 25q15 5 32 4h11q12 0 22 -4q18 -8 35 -25q18 -16 25 -35q6 -16 6 -116t-8 -121l-512 -1166q-18 -29 -52 -41q-16 -6 -172 -6h-143l-8 2q-68 23 -72 97z" />
<glyph unicode="z" d="M219 82v117q6 27 23 45q6 8 348 334l340 327l-293 2h-291l-10 2q-63 20 -70 84q-2 16 2 35q12 55 70 72q6 2 10 2h381q375 0 383 -2q23 -6 37 -19q16 -14 27 -32q8 -20 10 -80l-4 -72l-2 -8q-6 -16 -19 -31q-6 -6 -346 -334l-340 -327h313q315 -2 322 -4q27 -6 43 -23 q31 -31 31 -72q0 -63 -58 -90q-10 -4 -22 -6h-805q-29 6 -51 27q-23 22 -29 53z" />
<glyph unicode="{" d="M219 758q0 70 72 94q8 4 121 4q117 0 135 10q41 18 53 64q2 8 4 211v202l2 13q16 72 72 117q41 35 98 40q8 2 164 3l164 -3q63 -12 78 -73q2 -10 2 -23q0 -63 -58 -90q-10 -4 -22 -6q-8 -2 -156 -2h-149v-191q0 -205 -6 -235q-14 -68 -58 -121l-10 -12l8 -12 q31 -39 49 -86q8 -23 15 -56l2 -14v-199v-196h149q147 0 156 -2q63 -12 78 -74q2 -10 2 -23q0 -66 -60 -90l-20 -6l-164 -2q-164 0 -188 6q-96 25 -134 117q-6 10 -8 22q-6 23 -6 230q-2 211 -10 229q-20 39 -64 53q-8 2 -118 2q-113 2 -121 5q-68 20 -72 94z" />
<glyph unicode="|" d="M604 319v56v284h96h99v-288q0 -297 -11 -316q-14 -31 -43 -45q-29 -12 -55 -10q-10 2 -22 6q-18 6 -35 23q-16 18 -23 34q-6 18 -6 256zM604 856v285q0 293 6 311q6 16 23 33q23 23 51 28l43 -2l18 -6q29 -14 43 -45q10 -18 11 -84v-231v-289h-99h-96z" />
<glyph unicode="}" d="M219 98q0 68 72 95l8 2l152 2h153v190q0 190 2 211q4 35 15 64q18 49 49 86l8 12q-2 0 -10 12q-43 53 -58 121q-6 31 -6 235v191h-153h-152l-8 4q-45 12 -64 53q-12 25 -8 54q2 14 8 28q20 47 74 55q6 2 160 3q166 0 190 -7q96 -25 133 -116q6 -12 9 -23q6 -23 6 -229 l2 -203l2 -10q12 -43 53 -62q18 -10 92 -10h43q117 0 133 -8q57 -23 60 -90q0 -61 -60 -90q-16 -6 -133 -9q-117 0 -135 -10q-33 -14 -47 -45q-8 -18 -8 -100l-2 -129v-205l-2 -12q-12 -49 -41 -86q-45 -53 -115 -68l-14 -4h-162h-164l-10 4q-68 26 -72 94z" />
<glyph unicode="~" d="M219 1047v65l2 143q12 98 80 170q74 76 178 88q51 6 101 -8q29 -6 53 -18q74 -37 117 -105q35 -53 45 -114q4 -16 4 -92l2 -74l4 -12q14 -43 51 -62q18 -8 41 -8q18 2 37 10q31 14 45 47q10 18 10 97q0 -6 0 53q0 131 10 151q14 29 45 43q20 10 43 11l35 -7l8 -4 q31 -14 46 -43q10 -20 10 -88v-69q0 -131 -4 -148q-8 -43 -25 -82q-59 -121 -194 -157q-31 -8 -62 -9q-129 -6 -221 97q-51 55 -68 127q-8 31 -8 114l-2 76l-4 10q-14 41 -51 62q-18 8 -41 8q-57 -4 -82 -55q-8 -20 -8 -99q0 8 -2 -53q0 -131 -11 -149q-14 -31 -43 -45 q-20 -10 -43 -11q-25 0 -45 11q-29 14 -43 45q-10 18 -10 84z" />
<glyph unicode="&#xa0;" />
<glyph unicode="&#xa3;" d="M219 98q0 70 72 95q8 2 76 4h69l66 231q68 229 67 231h-135l-135 3l-8 2q-68 20 -72 94q0 70 72 94l8 4h164h166l65 227q68 227 72 240q41 111 145 162q45 20 93 28h100q63 -12 78 -73l2 -23q0 -68 -66 -92l-8 -4q-6 -2 -47 -2q-45 -2 -64 -10q-31 -14 -47 -45 q-4 -8 -61 -207t-57 -201h131q131 0 139 -2q63 -12 78 -72q2 -12 2 -24q0 -63 -58 -88q-10 -6 -22 -8q-8 -2 -168 -3h-162v-2q0 -2 -67 -231l-68 -229h233q236 -2 252 -9q57 -23 60 -90q0 -66 -60 -90l-22 -6l-406 -2h-397l-8 4q-68 20 -72 94z" />
<glyph unicode="&#xa5;" d="M219 592q0 70 72 96l8 2h152h153v21v20l-186 320q-188 317 -191 325q-12 25 -8 54q2 14 8 28q20 47 74 55q20 4 43 -2q12 -4 23 -10q18 -12 30 -31q6 -8 156 -264l147 -254l5 4l147 252l152 258q35 59 100 47q29 -6 49 -24q14 -14 23 -31q12 -25 8 -53q-2 -16 -8 -29 q-4 -8 -191 -325l-186 -320v-20v-21h149h156q63 -12 78 -74q2 -12 2 -24q0 -61 -58 -88q-10 -4 -22 -8h-156h-149v-209q0 -213 -11 -232q-14 -31 -43 -45q-29 -12 -55 -10q-10 2 -22 6q-18 6 -35 23q-16 18 -23 34q-6 18 -6 230v203h-153h-152l-8 2q-68 20 -72 94z" />
<glyph unicode="&#xa6;" d="M604 -195v1170v1171h96h99v-1171v-1170h-99h-96z" />
<glyph unicode="&#xaa;" d="M219 346q0 72 2 90q12 96 80 166q66 70 164 86l16 2h215h215l17 -2q16 -4 28 -6l13 -2l-2 70q-4 70 -4 79q-10 53 -64 72l-12 4l-199 2q-203 0 -223 11q-37 18 -51 61q-2 8 -2 27q0 16 2 26q6 18 18 35q25 29 64 35h204q207 0 238 -8q135 -33 195 -160q20 -45 26 -92 q0 -12 10 -262l13 -367l2 -127q-4 -35 -31 -59q-30 -29 -63 -29q-24 0 -50 14q-37 20 -49 64q-2 8 -2 12v6l-71 -41q-82 -47 -97 -51q-8 -2 -174 -2q-176 0 -209 8q-80 20 -137 80q-68 70 -80 168q-2 18 -2 90zM416 274l2 -8q16 -51 65 -67q8 -2 148 -2h141l105 59l104 61 l-2 50q-2 49 -4 59q-8 29 -31 47q-14 10 -31 16l-12 5h-201h-206q-6 -2 -17 -5q-45 -16 -59 -63l-2 -10v-70v-72z" />
<glyph unicode="&#xad;" d="M219 770q2 14 8 29q20 47 74 55q6 2 399 2q406 0 422 -6q37 -14 54 -51q27 -57 -17 -105q-23 -27 -57 -32l-406 -3l-397 3l-8 2q-45 14 -64 53q-12 26 -8 53z" />
<glyph unicode="&#xb2;" d="M219 0v342v342l2 12q14 63 60 105q49 47 118 53q16 2 303 2h287v231v232h-344h-346l-8 4q-45 12 -64 53q-12 25 -8 54q2 14 8 28q20 47 74 55q6 2 354 3q358 0 383 -7q100 -27 136 -125q8 -18 10 -41v-512q-10 -70 -60 -116q-39 -37 -92 -51l-14 -2l-301 -3h-301 q-2 0 -2 -231v-231h342q340 0 348 -2q63 -12 78 -74q2 -10 2 -23q0 -66 -60 -90l-20 -6l-447 -2h-438z" />
<glyph unicode="&#xb3;" d="M219 98q0 70 72 95l8 2l346 2h344v190q0 199 -10 217q-14 31 -45 45q-18 10 -100 10h-134q-215 2 -235 11q-37 18 -51 61q-2 10 -2 27q0 18 2 26q14 43 51 62q20 10 90 10h145h209l11 4q51 16 67 70q2 8 2 198v191h-344h-346l-8 4q-45 12 -64 53q-12 25 -8 54q2 14 8 28 q20 47 74 55q6 2 354 3q358 0 383 -7q100 -27 136 -125q8 -18 10 -41v-419v-2q-10 -84 -64 -150l-8 -12l6 -12q33 -39 49 -86q10 -25 15 -56l4 -16v-209v-209l-4 -12q-10 -51 -41 -88q-51 -61 -131 -70l-361 -2h-350l-8 4q-68 20 -72 94z" />
<glyph unicode="&#xb4;" d="M508 1417l2 25q10 31 33 51q23 16 49 20h113q117 0 137 -8q29 -14 43 -45q10 -20 10 -43q0 -16 -49 -266q-49 -252 -51 -260q-6 -18 -23 -35q-25 -27 -59 -31l-37 2q-4 2 -6 2q-20 8 -37 25q-18 16 -25 37q-2 8 -51 260q-49 250 -49 266z" />
<glyph unicode="&#xb7;" d="M461 82v321q6 29 28 52q20 23 50 28l166 2q166 -2 184 -10q31 -14 45 -45q8 -20 10 -88v-100q0 -168 -10 -187q-14 -31 -45 -45q-20 -10 -90 -10h-92q-164 0 -183 6q-18 6 -35 23q-22 22 -28 53z" />
<glyph unicode="&#xb8;" d="M412 551q0 57 6 76q6 18 22 35q23 23 52 26l213 2q213 0 233 -10q29 -14 43 -43q10 -20 10 -88v-203q0 -272 -10 -291q-14 -31 -43 -45q-20 -10 -86 -10l-78 4q-4 0 -10 2q-18 6 -35 23q-16 18 -22 34q-6 18 -7 189v160h-100q-106 0 -125 6q-18 8 -35 24q-16 16 -22 33 q-6 19 -6 76z" />
<glyph unicode="&#xb9;" d="M219 98q0 68 72 95l8 2l152 2h153v561v561h-153h-152l-8 4q-45 12 -64 53q-12 25 -8 54q2 14 8 28q20 47 74 55q6 2 252 3h246v-660v-659h96h94v202q0 209 6 228l9 16q12 20 34 35q16 8 39 12q20 2 41 -4q12 -4 23 -10q20 -14 30 -33q10 -16 13 -37l2 -266 q0 -266 -10 -285q-14 -31 -46 -45q-10 -6 -18 -8t-410 -2h-401l-10 4q-68 26 -72 94z" />
<glyph unicode="&#xba;" d="M219 553q0 215 2 233q12 96 78 166q39 41 104 90q61 47 144 60h160q147 0 159 -2q31 -4 58 -15q47 -18 82 -45q70 -59 92 -82q74 -72 86 -176q2 -16 2 -231q0 -217 -2 -236q-14 -100 -86 -172q-23 -23 -92 -80q-51 -41 -121 -57q-31 -6 -183 -6t-184 6q-63 14 -117 55 q-68 53 -102 91q-68 70 -78 170q-2 14 -2 231zM416 553q0 -225 8 -242q10 -20 59 -61q43 -37 54 -43q20 -10 90 -10h75q143 0 160 8q14 6 62 47q51 43 61 70l4 12v217q0 215 -2 223q-6 20 -18 37l-92 80q-12 8 -29 12q-6 2 -143 4q-141 0 -156 -6q-16 -6 -29 -14l-43 -39 q-49 -41 -57 -68l-4 -10v-217z" />
<glyph unicode="&#xbf;" d="M219 922q0 43 31 71l584 500q20 16 45 20q23 4 47 -4q12 -4 22 -10l207 -176q18 -18 27 -45l4 -10v-99v-98l-4 -10q-6 -18 -19 -35q-6 -8 -280 -244l-275 -233l-2 -234q0 -242 -10 -260q-14 -31 -43 -45q-29 -12 -55 -10q-10 2 -23 6q-18 6 -35 23q-23 23 -28 53v528 q6 29 28 52q10 10 281 239l268 232v36v37l-22 21l-47 39l-25 22l-260 -221q-260 -223 -266 -227q-31 -20 -68 -15q-14 2 -29 11q-53 27 -53 86z" />
<glyph unicode="&#xc0;" d="M8 2247q2 14 11 26q20 45 71 53q6 2 111 3q113 0 131 -7q16 -6 33 -20q8 -8 202 -258q193 -248 199 -254l8 -16q18 -47 -8 -91l-22 -24q-8 -6 -17 -10q-20 -10 -45 -11q-31 0 -55 19q-8 4 -299 254t-299 258q-27 33 -21 78zM219 117l2 4l389 1331q6 16 23 33q23 23 51 28 l43 -2l18 -6q29 -14 43 -45q6 -10 199 -674q195 -664 197 -669v-19q0 -63 -58 -90q-19 -8 -38 -8l-27 4q-47 12 -66 59q-2 8 -41 138l-36 129h-218h-215l-39 -131q-37 -131 -40 -138q-10 -29 -37 -45q-27 -18 -54 -18q-28 0 -55 20q-31 20 -39 58zM543 526h80h157h80 l-80 269l-78 270l-79 -268z" />
<glyph unicode="&#xc1;" d="M490 2230l2 25q10 31 33 51q23 16 49 20h113q117 0 137 -8q29 -14 43 -45q10 -20 10 -43q0 -16 -49 -266q-49 -252 -51 -260q-6 -18 -23 -35q-25 -27 -59 -31l-37 2q-4 2 -6 2q-20 8 -37 25q-18 16 -25 37q-2 8 -51 260q-49 250 -49 266zM219 117l2 4l389 1331 q6 16 23 33q23 23 51 28l43 -2l18 -6q29 -14 43 -45q6 -10 199 -674q195 -664 197 -669v-19q0 -63 -58 -90q-19 -8 -38 -8l-27 4q-47 12 -66 59q-2 8 -41 138l-36 129h-218h-215l-39 -131q-37 -131 -40 -138q-10 -29 -37 -45q-27 -18 -54 -18q-28 0 -55 20q-31 20 -39 58z M543 526h80h157h80l-80 269l-78 270l-79 -268z" />
<glyph unicode="&#xc2;" d="M201 1733l4 35q2 6 6 12l392 752q14 23 34 33q16 8 31 10h31q33 -6 55 -31q10 -8 14 -16l385 -744q14 -29 13 -59q-8 -63 -70 -82l-16 -4q-27 -4 -54 10q-16 6 -26 18q-8 8 -127 187l-154 231l-37 51l-153 -229q-154 -231 -162 -240q-31 -31 -80 -28q-61 8 -82 65 q-4 13 -4 29zM219 117l2 4l389 1331q6 16 23 33q23 23 51 28l43 -2l18 -6q29 -14 43 -45q6 -10 199 -674q195 -664 197 -669v-19q0 -63 -58 -90q-19 -8 -38 -8l-27 4q-47 12 -66 59q-2 8 -41 138l-36 129h-218h-215l-39 -131q-37 -131 -40 -138q-10 -29 -37 -45 q-27 -18 -54 -18q-28 0 -55 20q-31 20 -39 58zM543 526h80h157h80l-80 269l-78 270l-79 -268z" />
<glyph unicode="&#xc3;" d="M201 1860v65l2 143q12 98 80 170q74 76 178 88q51 6 101 -8q29 -6 53 -18q74 -37 117 -105q35 -53 45 -114q4 -16 4 -92l2 -74l4 -12q14 -43 51 -62q18 -8 41 -8q18 2 37 10q31 14 45 47q10 18 10 97q0 -6 0 53q0 131 10 151q14 29 45 43q20 10 43 11l35 -7l8 -4 q31 -14 46 -43q10 -20 10 -88v-69q0 -131 -4 -148q-8 -43 -25 -82q-59 -121 -194 -157q-31 -8 -62 -9q-129 -6 -221 97q-51 55 -68 127q-8 31 -8 114l-2 76l-4 10q-14 41 -51 62q-18 8 -41 8q-57 -4 -82 -55q-8 -20 -8 -99q0 8 -2 -53q0 -131 -11 -149q-14 -31 -43 -45 q-20 -10 -43 -11q-25 0 -45 11q-29 14 -43 45q-10 18 -10 84zM219 117l2 4l389 1331q6 16 23 33q23 23 51 28l43 -2l18 -6q29 -14 43 -45q6 -10 199 -674q195 -664 197 -669v-19q0 -63 -58 -90q-19 -8 -38 -8l-27 4q-47 12 -66 59q-2 8 -41 138l-36 129h-218h-215l-39 -131 q-37 -131 -40 -138q-10 -29 -37 -45q-27 -18 -54 -18q-28 0 -55 20q-31 20 -39 58zM543 526h80h157h80l-80 269l-78 270l-79 -268z" />
<glyph unicode="&#xc4;" d="M219 119h2l387 1001q6 12 13 21q14 23 34 33q16 8 31 10h31q33 -6 55 -31q10 -8 14 -16l396 -1016l2 -41q0 -2 -2 -6q-16 -61 -78 -72q-23 -4 -43 2q-43 12 -62 49q-4 10 -69 180l-6 13h-222h-223l-37 -94q-37 -92 -39 -99q-8 -14 -20 -26q-51 -49 -115 -15 q-37 20 -47 64zM219 1235v199q6 29 29 51q23 23 51 28l43 -2l18 -6q29 -14 43 -45q10 -20 11 -86q0 8 0 -33q2 -102 -6 -122q-14 -41 -56 -58q-16 -6 -37 -6q-23 0 -41 8q-45 23 -55 72zM555 444l74 -2h145l74 2l-74 185q-72 184 -72 186t-14 -31l-59 -153zM991 1235v199 q6 29 29 51q20 23 49 28l43 -2q8 -2 18 -6q31 -14 46 -45q10 -20 10 -86q0 8 0 -33q0 -102 -6 -122q-14 -41 -56 -58q-16 -6 -37 -6q-25 0 -43 8q-45 23 -53 72z" />
<glyph unicode="&#xc5;" d="M219 117l2 4q2 10 127 440l127 432l-10 2q-43 10 -76 37q-55 45 -72 117q-2 12 -2 102q0 92 2 105q16 72 72 117q41 35 98 40l220 3l211 -3l12 -2q51 -12 86 -41q53 -43 69 -114q2 -12 2 -105q0 -90 -2 -102q-16 -72 -69 -115q-35 -29 -78 -39l-10 -2l125 -432 q127 -430 129 -440l2 -41q0 -2 -2 -6q-16 -59 -76 -72q-12 -2 -25 -2q-63 4 -86 63q-2 8 -41 138l-36 129h-218h-215l-39 -131q-37 -131 -40 -138q-10 -29 -37 -45q-55 -37 -109 2q-31 20 -39 58zM510 1186h190h193v65v68h-193h-190v-68v-65zM543 526h80h157h80l-67 230 q-68 227 -68 231q0 2 -25 2q-23 0 -22 -2q0 -4 -68 -231z" />
<glyph unicode="&#xc6;" d="M219 117l2 4l492 1345q14 23 35 35q14 8 32 12h324q63 -12 78 -73q2 -10 2 -23q0 -63 -58 -90q-10 -4 -22 -6q-8 -2 -109 -2h-100v-232v-231h100q100 0 109 -2q63 -12 78 -72q2 -12 2 -24q0 -63 -58 -88q-10 -6 -22 -8q-8 -2 -109 -3h-100v-231v-231h100q100 0 109 -2 q63 -12 78 -74q2 -10 2 -23q0 -66 -60 -90q-10 -4 -20 -6h-324q-29 6 -51 27q-16 18 -22 34q-6 18 -7 146v121h-98q-96 0 -98 -2q0 -2 -49 -135t-52 -140q-8 -14 -20 -26q-51 -49 -115 -15q-37 20 -47 64zM578 526h59h61v168v166l-61 -166z" />
<glyph unicode="&#xc7;" d="M621 -115q0 57 6 76q6 18 22 35q23 23 52 26l213 2q213 0 233 -10q29 -14 43 -43q10 -20 10 -88v-203q0 -272 -10 -291q-14 -31 -43 -45q-20 -10 -86 -10l-78 4q-4 0 -10 2q-18 6 -35 23q-16 18 -22 34q-6 18 -7 189v160h-100q-106 0 -125 6q-18 8 -35 24q-16 16 -22 33 q-6 19 -6 76zM221 707v96v6q8 66 33 123l221 442q76 121 213 139q18 2 213 3l203 -3q63 -12 78 -73q2 -10 2 -23q0 -59 -60 -90q-16 -8 -149 -8h-70q-197 0 -205 -2q-31 -10 -51 -35q-6 -8 -61 -121q-143 -283 -156 -311q-10 -23 -14 -53v-74v-4q4 -31 14 -53 q12 -29 156 -314q55 -111 61 -119q20 -25 51 -34q8 -2 205 -2q203 -2 219 -9q57 -23 60 -90q0 -66 -60 -90l-20 -6h-410q-143 16 -219 139l-221 443q-25 57 -33 123z" />
<glyph unicode="&#xc8;" d="M-238 2247q2 14 11 26q20 45 71 53q6 2 111 3q113 0 131 -7q16 -6 33 -20q8 -8 202 -258q193 -248 199 -254l8 -16q18 -47 -8 -91l-22 -24q-8 -6 -17 -10q-20 -10 -45 -11q-31 0 -55 19q-8 4 -299 254t-299 258q-27 33 -21 78zM219 0v758v758h438q438 0 447 -3 q63 -12 78 -73q2 -10 2 -23q0 -63 -58 -90q-10 -4 -22 -6q-8 -2 -348 -2h-342v-232v-231h153q158 0 178 -10q29 -14 43 -45q10 -18 11 -43q0 -23 -11 -43q-14 -29 -43 -45q-20 -8 -88 -8q-6 0 -90 -3h-153v-231v-231h342q340 0 348 -2q63 -12 78 -74q2 -10 2 -23 q0 -66 -60 -90l-20 -6l-447 -2h-438z" />
<glyph unicode="&#xc9;" d="M244 2230l2 25q10 31 33 51q23 16 49 20h113q117 0 137 -8q29 -14 43 -45q10 -20 10 -43q0 -16 -49 -266q-49 -252 -51 -260q-6 -18 -23 -35q-25 -27 -59 -31l-37 2q-4 2 -6 2q-20 8 -37 25q-18 16 -25 37q-2 8 -51 260q-49 250 -49 266zM219 0v758v758h438q438 0 447 -3 q63 -12 78 -73q2 -10 2 -23q0 -63 -58 -90q-10 -4 -22 -6q-8 -2 -348 -2h-342v-232v-231h153q158 0 178 -10q29 -14 43 -45q10 -18 11 -43q0 -23 -11 -43q-14 -29 -43 -45q-20 -8 -88 -8q-6 0 -90 -3h-153v-231v-231h342q340 0 348 -2q63 -12 78 -74q2 -10 2 -23 q0 -66 -60 -90l-20 -6l-447 -2h-438z" />
<glyph unicode="&#xca;" d="M-45 1733l4 35q2 6 6 12l392 752q14 23 34 33q16 8 31 10h31q33 -6 55 -31q10 -8 14 -16l385 -744q14 -29 13 -59q-8 -63 -70 -82l-16 -4q-27 -4 -54 10q-16 6 -26 18q-8 8 -127 187l-154 231l-37 51l-153 -229q-154 -231 -162 -240q-31 -31 -80 -28q-61 8 -82 65 q-4 13 -4 29zM219 0v758v758h438q438 0 447 -3q63 -12 78 -73q2 -10 2 -23q0 -63 -58 -90q-10 -4 -22 -6q-8 -2 -348 -2h-342v-232v-231h153q158 0 178 -10q29 -14 43 -45q10 -18 11 -43q0 -23 -11 -43q-14 -29 -43 -45q-20 -8 -88 -8q-6 0 -90 -3h-153v-231v-231h342 q340 0 348 -2q63 -12 78 -74q2 -10 2 -23q0 -66 -60 -90l-20 -6l-447 -2h-438z" />
<glyph unicode="&#xcc;" d="M24 2247q2 14 11 26q20 45 71 53q6 2 111 3q113 0 131 -7q16 -6 33 -20q8 -8 202 -258q193 -248 199 -254l8 -16q18 -47 -8 -91l-22 -24q-8 -6 -17 -10q-20 -10 -45 -11q-31 0 -55 19q-8 4 -299 254t-299 258q-27 33 -21 78zM219 98q0 68 72 95l8 2l152 2h153v561v561 h-153h-152l-8 4q-45 12 -64 53q-9 18 -9 39q0 7 1 15q2 14 8 28q20 47 74 55q6 2 399 3l404 -3q63 -12 78 -73q2 -10 2 -23q0 -63 -58 -90q-10 -4 -22 -6q-8 -2 -156 -2h-149v-561v-561h149q156 0 174 -7q37 -14 54 -51q10 -22 10 -42q0 -33 -27 -64l-24 -21l-33 -10 l-406 -2h-397l-8 4q-68 20 -72 94z" />
<glyph unicode="&#xcd;" d="M506 2230l2 25q10 31 33 51q23 16 49 20h113q117 0 137 -8q29 -14 43 -45q10 -20 10 -43q0 -16 -49 -266q-49 -252 -51 -260q-6 -18 -23 -35q-25 -27 -59 -31l-37 2q-4 2 -6 2q-20 8 -37 25q-18 16 -25 37q-2 8 -51 260q-49 250 -49 266zM219 98q0 68 72 95l8 2l152 2 h153v561v561h-153h-152l-8 4q-45 12 -64 53q-9 18 -9 39q0 7 1 15q2 14 8 28q20 47 74 55q6 2 399 3l404 -3q63 -12 78 -73q2 -10 2 -23q0 -63 -58 -90q-10 -4 -22 -6q-8 -2 -156 -2h-149v-561v-561h149q156 0 174 -7q37 -14 54 -51q10 -22 10 -42q0 -33 -27 -64l-24 -21 l-33 -10l-406 -2h-397l-8 4q-68 20 -72 94z" />
<glyph unicode="&#xce;" d="M217 1733l4 35q2 6 6 12l392 752q14 23 34 33q16 8 31 10h31q33 -6 55 -31q10 -8 14 -16l385 -744q14 -29 13 -59q-8 -63 -70 -82l-16 -4q-27 -4 -54 10q-16 6 -26 18q-8 8 -127 187l-154 231l-37 51l-153 -229q-154 -231 -162 -240q-31 -31 -80 -28q-61 8 -82 65 q-4 13 -4 29zM219 98q0 68 72 95l8 2l152 2h153v561v561h-153h-152l-8 4q-45 12 -64 53q-9 18 -9 39q0 7 1 15q2 14 8 28q20 47 74 55q6 2 399 3l404 -3q63 -12 78 -73q2 -10 2 -23q0 -63 -58 -90q-10 -4 -22 -6q-8 -2 -156 -2h-149v-561v-561h149q156 0 174 -7 q37 -14 54 -51q10 -22 10 -42q0 -33 -27 -64l-24 -21l-33 -10l-406 -2h-397l-8 4q-68 20 -72 94z" />
<glyph unicode="&#xd1;" d="M219 84v432q0 424 2 430q6 23 19 39q25 27 63 35l39 -2q18 -6 33 -17q8 -6 311 -329l303 -326v297q0 303 10 322q20 39 62 53h45h6q20 -6 37 -21q25 -18 35 -51q2 -8 2 -436t-2 -436q-4 -8 -8 -19q-14 -31 -46 -45q-27 -12 -55 -10q-10 2 -20 6q-18 6 -35 23 q-12 10 -307 327l-297 318l-2 -297q0 -303 -11 -322q-14 -31 -43 -45q-18 -8 -36 -10l-39 6l-19 8q-20 12 -35 35q-8 15 -12 35zM219 1376q0 57 6 76q6 16 23 33q23 23 51 28q8 2 14 3l342 -37l338 -35l2 8q6 16 25 33q16 18 35 24q25 8 49 4q14 -2 26 -8q31 -14 46 -45 q8 -20 10 -78l-4 -71q0 -4 -2 -11q-6 -16 -23 -32q-25 -27 -59 -31l-348 35l-336 35q-4 0 -6 -7q-6 -16 -21 -32q-25 -27 -59 -31q-20 -2 -41 4q-12 4 -23 10q-20 12 -33 33q-4 8 -6 16q-6 19 -6 76z" />
<glyph unicode="&#xd2;" d="M24 2247q2 14 11 26q20 45 71 53q6 2 111 3q113 0 131 -7q16 -6 33 -20q8 -8 202 -258q193 -248 199 -254l8 -16q18 -47 -8 -91l-22 -24q-8 -6 -17 -10q-20 -10 -45 -11q-31 0 -55 19q-8 4 -299 254t-299 258q-27 33 -21 78zM221 707v96v6q8 61 29 115l235 471 q49 80 138 106q23 8 49 12q10 2 28 3q88 0 160 -58q23 -16 39 -39q12 -14 21 -28q8 -12 118 -236q111 -221 119 -240q29 -80 29 -161q0 -23 -2 -45q-6 -39 -17 -76q-10 -37 -129 -275q-111 -221 -118 -233q-14 -25 -35 -47q-76 -78 -177 -78q-24 0 -49 4q-37 6 -69 23 q-66 31 -105 94l-235 471q-21 54 -29 115zM418 719q4 -29 14 -51q4 -12 113 -230q106 -217 114 -225q12 -12 29 -14q8 -3 16 -3l21 5q10 4 18 12q6 8 68 131l111 221q49 96 55 113q13 39 12 79v11v8q-4 31 -12 62q-6 16 -55 112l-111 221q-61 123 -68 129q-12 12 -28 17 q-7 1 -13 1q-13 0 -24 -5q-10 -4 -19 -13q-8 -6 -114 -223q-109 -217 -113 -229q-10 -23 -14 -51v-76v-2z" />
<glyph unicode="&#xd3;" d="M506 2230l2 25q10 31 33 51q23 16 49 20h113q117 0 137 -8q29 -14 43 -45q10 -20 10 -43q0 -16 -49 -266q-49 -252 -51 -260q-6 -18 -23 -35q-25 -27 -59 -31l-37 2q-4 2 -6 2q-20 8 -37 25q-18 16 -25 37q-2 8 -51 260q-49 250 -49 266zM221 707v96v6q8 61 29 115 l235 471q49 80 138 106q23 8 49 12q10 2 28 3q88 0 160 -58q23 -16 39 -39q12 -14 21 -28q8 -12 118 -236q111 -221 119 -240q29 -80 29 -161q0 -23 -2 -45q-6 -39 -17 -76q-10 -37 -129 -275q-111 -221 -118 -233q-14 -25 -35 -47q-76 -78 -177 -78q-24 0 -49 4 q-37 6 -69 23q-66 31 -105 94l-235 471q-21 54 -29 115zM418 719q4 -29 14 -51q4 -12 113 -230q106 -217 114 -225q12 -12 29 -14q8 -3 16 -3l21 5q10 4 18 12q6 8 68 131l111 221q49 96 55 113q13 39 12 79v11v8q-4 31 -12 62q-6 16 -55 112l-111 221q-61 123 -68 129 q-12 12 -28 17q-7 1 -13 1q-13 0 -24 -5q-10 -4 -19 -13q-8 -6 -114 -223q-109 -217 -113 -229q-10 -23 -14 -51v-76v-2z" />
<glyph unicode="&#xd4;" d="M217 1733l4 35q2 6 6 12l392 752q14 23 34 33q16 8 31 10h31q33 -6 55 -31q10 -8 14 -16l385 -744q14 -29 13 -59q-8 -63 -70 -82l-16 -4q-27 -4 -54 10q-16 6 -26 18q-8 8 -127 187l-154 231l-37 51l-153 -229q-154 -231 -162 -240q-31 -31 -80 -28q-61 8 -82 65 q-4 13 -4 29zM221 707v96v6q8 61 29 115l235 471q49 80 138 106q23 8 49 12q10 2 28 3q88 0 160 -58q23 -16 39 -39q12 -14 21 -28q8 -12 118 -236q111 -221 119 -240q29 -80 29 -161q0 -23 -2 -45q-6 -39 -17 -76q-10 -37 -129 -275q-111 -221 -118 -233q-14 -25 -35 -47 q-76 -78 -177 -78q-24 0 -49 4q-37 6 -69 23q-66 31 -105 94l-235 471q-21 54 -29 115zM418 719q4 -29 14 -51q4 -12 113 -230q106 -217 114 -225q12 -12 29 -14q8 -3 16 -3l21 5q10 4 18 12q6 8 68 131l111 221q49 96 55 113q13 39 12 79v11v8q-4 31 -12 62q-6 16 -55 112 l-111 221q-61 123 -68 129q-12 12 -28 17q-7 1 -13 1q-13 0 -24 -5q-10 -4 -19 -13q-8 -6 -114 -223q-109 -217 -113 -229q-10 -23 -14 -51v-76v-2z" />
<glyph unicode="&#xd5;" d="M217 1860v65l2 143q12 98 80 170q74 76 178 88q51 6 101 -8q29 -6 53 -18q74 -37 117 -105q35 -53 45 -114q4 -16 4 -92l2 -74l4 -12q14 -43 51 -62q18 -8 41 -8q18 2 37 10q31 14 45 47q10 18 10 97q0 -6 0 53q0 131 10 151q14 29 45 43q20 10 43 11l35 -7l8 -4 q31 -14 46 -43q10 -20 10 -88v-69q0 -131 -4 -148q-8 -43 -25 -82q-59 -121 -194 -157q-31 -8 -62 -9q-129 -6 -221 97q-51 55 -68 127q-8 31 -8 114l-2 76l-4 10q-14 41 -51 62q-18 8 -41 8q-57 -4 -82 -55q-8 -20 -8 -99q0 8 -2 -53q0 -131 -11 -149q-14 -31 -43 -45 q-20 -10 -43 -11q-25 0 -45 11q-29 14 -43 45q-10 18 -10 84zM221 707v96v6q8 61 29 115l235 471q49 80 138 106q23 8 49 12q10 2 28 3q88 0 160 -58q23 -16 39 -39q12 -14 21 -28q8 -12 118 -236q111 -221 119 -240q29 -80 29 -161q0 -23 -2 -45q-6 -39 -17 -76 q-10 -37 -129 -275q-111 -221 -118 -233q-14 -25 -35 -47q-76 -78 -177 -78q-24 0 -49 4q-37 6 -69 23q-66 31 -105 94l-235 471q-21 54 -29 115zM418 719q4 -29 14 -51q4 -12 113 -230q106 -217 114 -225q12 -12 29 -14q8 -3 16 -3l21 5q10 4 18 12q6 8 68 131l111 221 q49 96 55 113q13 39 12 79v11v8q-4 31 -12 62q-6 16 -55 112l-111 221q-61 123 -68 129q-12 12 -28 17q-7 1 -13 1q-13 0 -24 -5q-10 -4 -19 -13q-8 -6 -114 -223q-109 -217 -113 -229q-10 -23 -14 -51v-76v-2z" />
<glyph unicode="&#xd8;" d="M219 117q2 12 8 22q2 6 68 117l65 113l-38 75l-52 103q-12 27 -18 41q-23 55 -31 119v96v6q8 61 29 115l235 471q49 80 138 106q23 8 49 12q43 6 92 -6q27 -8 49 -18q76 -37 117 -117l8 -14q2 2 33 55q37 61 45 72q27 27 65 31q39 2 70 -25l20 -27q2 -2 5 -6 q12 -25 8 -53q-2 -16 -8 -29q-4 -8 -68 -119l-66 -110l54 -107q53 -106 61 -125q37 -102 27 -206q-6 -39 -17 -76q-10 -37 -129 -275q-111 -221 -118 -233q-14 -25 -35 -47q-94 -96 -226 -74q-37 6 -69 23q-76 37 -117 116l-8 15q-2 -2 -33 -56q-39 -66 -49 -75 q-51 -49 -115 -15q-37 20 -47 64q-6 18 -2 41zM418 719q4 -27 12 -47l49 -101l340 582l-35 72q-35 70 -41 75q-12 12 -28 17q-20 4 -37 -4q-10 -4 -19 -13q-8 -6 -114 -223q-109 -217 -113 -229q-10 -23 -14 -51v-76v-2zM584 360q0 -2 34 -69q35 -70 41 -78q12 -12 29 -14 q18 -6 37 2q10 4 18 12q6 8 68 131l111 221q49 96 55 113q14 45 12 90v8q-4 49 -41 123l-22 45z" />
<glyph unicode="&#xd9;" d="M409 2247q2 14 11 26q20 45 71 53q6 2 111 3q113 0 131 -7q16 -6 33 -20q8 -8 202 -258q193 -248 199 -254l8 -16q18 -47 -8 -91l-22 -24q-8 -6 -17 -10q-20 -10 -45 -11q-31 0 -55 19q-8 4 -299 254t-299 258q-27 33 -21 78zM219 633v-8v227q0 584 6 600t23 33 q23 23 51 28l43 -2q20 -4 37 -18q23 -20 33 -51q2 -8 2 -586q2 -580 4 -586q12 -45 53 -63q18 -10 94 -10h137q213 0 232 10q39 18 53 63q2 6 2 584q0 580 2 586q10 29 31 49q14 14 33 20q16 5 32 6l17 -2q14 -2 26 -8q39 -20 54 -63q2 -8 2 -586l-2 -596q-6 -51 -29 -96 q-63 -127 -203 -158l-24 -4q-20 -2 -226 -2q-207 0 -221 2q-139 16 -215 133q-29 43 -41 96q-6 31 -6 402z" />
<glyph unicode="&#xda;" d="M893 2230l2 25q10 31 33 51q23 16 49 20h113q117 0 137 -8q29 -14 43 -45q10 -20 10 -43q0 -16 -49 -266q-49 -252 -51 -260q-6 -18 -23 -35q-25 -27 -59 -31l-37 2q-4 2 -6 2q-20 8 -37 25q-18 16 -25 37q-2 8 -51 260q-49 250 -49 266zM219 633v-8v227q0 584 6 600 t23 33q23 23 51 28l43 -2q20 -4 37 -18q23 -20 33 -51q2 -8 2 -586q2 -580 4 -586q12 -45 53 -63q18 -10 94 -10h137q213 0 232 10q39 18 53 63q2 6 2 584q0 580 2 586q10 29 31 49q14 14 33 20q16 5 32 6l17 -2q14 -2 26 -8q39 -20 54 -63q2 -8 2 -586l-2 -596 q-6 -51 -29 -96q-63 -127 -203 -158l-24 -4q-20 -2 -226 -2q-207 0 -221 2q-139 16 -215 133q-29 43 -41 96q-6 31 -6 402z" />
<glyph unicode="&#xdb;" d="M604 1733l4 35q2 6 6 12l392 752q14 23 34 33q16 8 31 10h31q33 -6 55 -31q10 -8 14 -16l385 -744q14 -29 13 -59q-8 -63 -70 -82l-16 -4q-27 -4 -54 10q-16 6 -26 18q-8 8 -127 187l-154 231l-37 51l-153 -229q-154 -231 -162 -240q-31 -31 -80 -28q-61 8 -82 65 q-4 13 -4 29zM219 633v-8v227q0 584 6 600t23 33q23 23 51 28l43 -2q20 -4 37 -18q23 -20 33 -51q2 -8 2 -586q2 -580 4 -586q12 -45 53 -63q18 -10 94 -10h137q213 0 232 10q39 18 53 63q2 6 2 584q0 580 2 586q10 29 31 49q14 14 33 20q16 5 32 6l17 -2q14 -2 26 -8 q39 -20 54 -63q2 -8 2 -586l-2 -596q-6 -51 -29 -96q-63 -127 -203 -158l-24 -4q-20 -2 -226 -2q-207 0 -221 2q-139 16 -215 133q-29 43 -41 96q-6 31 -6 402z" />
<glyph unicode="&#xdd;" d="M893 2230l2 25q10 31 33 51q23 16 49 20h113q117 0 137 -8q29 -14 43 -45q10 -20 10 -43q0 -16 -49 -266q-49 -252 -51 -260q-6 -18 -23 -35q-25 -27 -59 -31l-37 2q-4 2 -6 2q-20 8 -37 25q-18 16 -25 37q-2 8 -51 260q-49 250 -49 266zM217 1219v98q0 113 8 133 q6 18 23 35q23 23 51 28l43 -2l18 -6q29 -14 43 -45q10 -20 11 -86v-14l2 -76l143 -182l143 -182q2 2 146 184l141 182v70q0 78 6 96q6 16 25 33q16 18 35 24q16 5 32 6l17 -2q14 -2 26 -8q31 -14 46 -45q10 -20 10 -86q0 2 0 -47v-108l-49 -64l-193 -248l-143 -182l-2 -322 q0 -330 -11 -348q-14 -31 -43 -45q-25 -11 -47 -10h-8q-10 2 -22 6q-18 6 -35 23q-16 18 -23 34q-6 18 -6 265v80v315l-194 248z" />
<glyph unicode="&#xe0;" d="M-78 1833q2 14 11 26q20 45 71 53q6 2 111 3q113 0 131 -7q16 -6 33 -20q8 -8 202 -258q193 -248 199 -254l8 -16q18 -47 -8 -91l-22 -24q-8 -6 -17 -10q-20 -10 -45 -11q-31 0 -55 19q-8 4 -299 254t-299 258q-27 33 -21 78zM219 346q0 72 2 90q12 96 80 166 q66 70 164 86l16 2h215h215l17 -2q16 -4 28 -6l13 -2l-2 70q-4 70 -4 79q-10 53 -64 72l-12 4l-199 2q-203 0 -223 11q-37 18 -51 61q-2 8 -2 27q0 16 2 26q6 18 18 35q25 29 64 35h204q207 0 238 -8q135 -33 195 -160q20 -45 26 -92q0 -12 10 -262l13 -367l2 -127 q-4 -35 -31 -59q-30 -29 -63 -29q-24 0 -50 14q-37 20 -49 64q-2 8 -2 12v6l-71 -41q-82 -47 -97 -51q-8 -2 -174 -2q-176 0 -209 8q-80 20 -137 80q-68 70 -80 168q-2 18 -2 90zM416 274l2 -8q16 -51 65 -67q8 -2 148 -2h141l105 59l104 61l-2 50q-2 49 -4 59q-8 29 -31 47 q-14 10 -31 16l-12 5h-201h-206q-6 -2 -17 -5q-45 -16 -59 -63l-2 -10v-70v-72z" />
<glyph unicode="&#xe1;" d="M404 1816l2 25q10 31 33 51q23 16 49 20h113q117 0 137 -8q29 -14 43 -45q10 -20 10 -43q0 -16 -49 -266q-49 -252 -51 -260q-6 -18 -23 -35q-25 -27 -59 -31l-37 2q-4 2 -6 2q-20 8 -37 25q-18 16 -25 37q-2 8 -51 260q-49 250 -49 266zM219 346q0 72 2 90q12 96 80 166 q66 70 164 86l16 2h215h215l17 -2q16 -4 28 -6l13 -2l-2 70q-4 70 -4 79q-10 53 -64 72l-12 4l-199 2q-203 0 -223 11q-37 18 -51 61q-2 8 -2 27q0 16 2 26q6 18 18 35q25 29 64 35h204q207 0 238 -8q135 -33 195 -160q20 -45 26 -92q0 -12 10 -262l13 -367l2 -127 q-4 -35 -31 -59q-30 -29 -63 -29q-24 0 -50 14q-37 20 -49 64q-2 8 -2 12v6l-71 -41q-82 -47 -97 -51q-8 -2 -174 -2q-176 0 -209 8q-80 20 -137 80q-68 70 -80 168q-2 18 -2 90zM416 274l2 -8q16 -51 65 -67q8 -2 148 -2h141l105 59l104 61l-2 50q-2 49 -4 59q-8 29 -31 47 q-14 10 -31 16l-12 5h-201h-206q-6 -2 -17 -5q-45 -16 -59 -63l-2 -10v-70v-72z" />
<glyph unicode="&#xe2;" d="M115 1319l4 35q2 6 6 12l392 752q14 23 34 33q16 8 31 10h31q33 -6 55 -31q10 -8 14 -16l385 -744q14 -29 13 -59q-8 -63 -70 -82l-16 -4q-27 -4 -54 10q-16 6 -26 18q-8 8 -127 187l-154 231l-37 51l-153 -229q-154 -231 -162 -240q-31 -31 -80 -28q-61 8 -82 65 q-4 13 -4 29zM219 346q0 72 2 90q12 96 80 166q66 70 164 86l16 2h215h215l17 -2q16 -4 28 -6l13 -2l-2 70q-4 70 -4 79q-10 53 -64 72l-12 4l-199 2q-203 0 -223 11q-37 18 -51 61q-2 8 -2 27q0 16 2 26q6 18 18 35q25 29 64 35h204q207 0 238 -8q135 -33 195 -160 q20 -45 26 -92q0 -12 10 -262l13 -367l2 -127q-4 -35 -31 -59q-30 -29 -63 -29q-24 0 -50 14q-37 20 -49 64q-2 8 -2 12v6l-71 -41q-82 -47 -97 -51q-8 -2 -174 -2q-176 0 -209 8q-80 20 -137 80q-68 70 -80 168q-2 18 -2 90zM416 274l2 -8q16 -51 65 -67q8 -2 148 -2h141 l105 59l104 61l-2 50q-2 49 -4 59q-8 29 -31 47q-14 10 -31 16l-12 5h-201h-206q-6 -2 -17 -5q-45 -16 -59 -63l-2 -10v-70v-72z" />
<glyph unicode="&#xe3;" d="M115 1446v65l2 143q12 98 80 170q74 76 178 88q51 6 101 -8q29 -6 53 -18q74 -37 117 -105q35 -53 45 -114q4 -16 4 -92l2 -74l4 -12q14 -43 51 -62q18 -8 41 -8q18 2 37 10q31 14 45 47q10 18 10 97q0 -6 0 53q0 131 10 151q14 29 45 43q20 10 43 11l35 -7l8 -4 q31 -14 46 -43q10 -20 10 -88v-69q0 -131 -4 -148q-8 -43 -25 -82q-59 -121 -194 -157q-31 -8 -62 -9q-129 -6 -221 97q-51 55 -68 127q-8 31 -8 114l-2 76l-4 10q-14 41 -51 62q-18 8 -41 8q-57 -4 -82 -55q-8 -20 -8 -99q0 8 -2 -53q0 -131 -11 -149q-14 -31 -43 -45 q-20 -10 -43 -11q-25 0 -45 11q-29 14 -43 45q-10 18 -10 84zM219 346q0 72 2 90q12 96 80 166q66 70 164 86l16 2h215h215l17 -2q16 -4 28 -6l13 -2l-2 70q-4 70 -4 79q-10 53 -64 72l-12 4l-199 2q-203 0 -223 11q-37 18 -51 61q-2 8 -2 27q0 16 2 26q6 18 18 35 q25 29 64 35h204q207 0 238 -8q135 -33 195 -160q20 -45 26 -92q0 -12 10 -262l13 -367l2 -127q-4 -35 -31 -59q-30 -29 -63 -29q-24 0 -50 14q-37 20 -49 64q-2 8 -2 12v6l-71 -41q-82 -47 -97 -51q-8 -2 -174 -2q-176 0 -209 8q-80 20 -137 80q-68 70 -80 168q-2 18 -2 90 zM416 274l2 -8q16 -51 65 -67q8 -2 148 -2h141l105 59l104 61l-2 50q-2 49 -4 59q-8 29 -31 47q-14 10 -31 16l-12 5h-201h-206q-6 -2 -17 -5q-45 -16 -59 -63l-2 -10v-70v-72z" />
<glyph unicode="&#xe7;" d="M596 -115q0 57 6 76q6 18 22 35q23 23 52 26l213 2q213 0 233 -10q29 -14 43 -43q10 -20 10 -88v-203q0 -272 -10 -291q-14 -31 -43 -45q-20 -10 -86 -10l-78 4q-4 0 -10 2q-18 6 -35 23q-16 18 -22 34q-6 18 -7 189v160h-100q-106 0 -125 6q-18 8 -35 24q-16 16 -22 33 q-6 19 -6 76zM219 545l2 160q12 96 78 165l203 174q61 47 141 58h461q63 -12 78 -74q2 -12 2 -22q0 -61 -60 -91q-16 -8 -153 -8h-90l-222 -2l-8 -2q-16 -4 -28 -14q-6 -4 -95 -80q-88 -74 -94 -82q-10 -14 -16 -33l-2 -8v-133q0 -133 2 -141q4 -20 16 -37q6 -6 94 -82 t95 -80q12 -8 28 -14q8 -2 230 -2q227 -2 243 -9q57 -23 60 -90q0 -63 -58 -90q-10 -4 -22 -6h-459q-80 8 -141 55l-199 170q-59 57 -78 138q-8 33 -8 180z" />
<glyph unicode="&#xe8;" d="M92 1833q2 14 11 26q20 45 71 53q6 2 111 3q113 0 131 -7q16 -6 33 -20q8 -8 202 -258q193 -248 199 -254l8 -16q18 -47 -8 -91l-22 -24q-8 -6 -17 -10q-20 -10 -45 -11q-31 0 -55 19q-8 4 -299 254t-299 258q-27 33 -21 78zM219 553q0 215 2 233q12 96 78 166 q25 25 98 86q63 53 150 64h153q38 1 68 0q89 0 106 -4q4 0 13 -2q68 -14 121 -58q74 -61 96 -86q59 -61 76 -143q6 -31 6 -166v-14q0 -141 -10 -162q-10 -20 -27 -33q-14 -12 -37 -18q-8 -2 -352 -4h-346l2 -39q0 -45 8 -62q10 -20 59 -61q49 -43 70 -51l10 -2h271 q274 -2 290 -9q57 -23 60 -90q0 -66 -60 -90l-20 -6h-555q-84 10 -148 59q-68 53 -102 91q-68 70 -78 170q-2 14 -2 231zM414 608h288h287v80q0 86 -10 107q-6 10 -12 18t-47 43q-49 41 -70 47l-8 2l-135 2q-141 0 -158 -6q-16 -6 -64 -45q-41 -35 -49 -43q-10 -14 -16 -33 l-4 -10v-82z" />
<glyph unicode="&#xe9;" d="M574 1816l2 25q10 31 33 51q23 16 49 20h113q117 0 137 -8q29 -14 43 -45q10 -20 10 -43q0 -16 -49 -266q-49 -252 -51 -260q-6 -18 -23 -35q-25 -27 -59 -31l-37 2q-4 2 -6 2q-20 8 -37 25q-18 16 -25 37q-2 8 -51 260q-49 250 -49 266zM219 553q0 215 2 233 q12 96 78 166q25 25 98 86q63 53 150 64h153q38 1 68 0q89 0 106 -4q4 0 13 -2q68 -14 121 -58q74 -61 96 -86q59 -61 76 -143q6 -31 6 -166v-14q0 -141 -10 -162q-10 -20 -27 -33q-14 -12 -37 -18q-8 -2 -352 -4h-346l2 -39q0 -45 8 -62q10 -20 59 -61q49 -43 70 -51l10 -2 h271q274 -2 290 -9q57 -23 60 -90q0 -66 -60 -90l-20 -6h-555q-84 10 -148 59q-68 53 -102 91q-68 70 -78 170q-2 14 -2 231zM414 608h288h287v80q0 86 -10 107q-6 10 -12 18t-47 43q-49 41 -70 47l-8 2l-135 2q-141 0 -158 -6q-16 -6 -64 -45q-41 -35 -49 -43 q-10 -14 -16 -33l-4 -10v-82z" />
<glyph unicode="&#xea;" d="M285 1321l4 35q2 6 6 12l392 752q14 23 34 33q16 8 31 10h31q33 -6 55 -31q10 -8 14 -16l385 -744q14 -29 13 -59q-8 -63 -70 -82l-16 -4q-27 -4 -54 10q-16 6 -26 18q-8 8 -127 187l-154 231l-37 51l-153 -229q-154 -231 -162 -240q-31 -31 -80 -28q-61 8 -82 65 q-4 13 -4 29zM219 553q0 215 2 233q12 96 78 166q25 25 98 86q63 53 150 64h153q38 1 68 0q89 0 106 -4q4 0 13 -2q68 -14 121 -58q74 -61 96 -86q59 -61 76 -143q6 -31 6 -166v-14q0 -141 -10 -162q-10 -20 -27 -33q-14 -12 -37 -18q-8 -2 -352 -4h-346l2 -39q0 -45 8 -62 q10 -20 59 -61q49 -43 70 -51l10 -2h271q274 -2 290 -9q57 -23 60 -90q0 -66 -60 -90l-20 -6h-555q-84 10 -148 59q-68 53 -102 91q-68 70 -78 170q-2 14 -2 231zM414 608h288h287v80q0 86 -10 107q-6 10 -12 18t-47 43q-49 41 -70 47l-8 2l-135 2q-141 0 -158 -6 q-16 -6 -64 -45q-41 -35 -49 -43q-10 -14 -16 -33l-4 -10v-82z" />
<glyph unicode="&#xec;" d="M-21 2329q2 14 11 26q20 45 71 53q6 2 111 3q113 0 131 -7q16 -6 33 -20q8 -8 202 -258q193 -248 199 -254l8 -16q18 -47 -8 -91l-22 -24q-8 -6 -17 -10q-20 -10 -45 -11q-31 0 -55 19q-8 4 -299 254t-299 258q-27 33 -21 78zM315 98q0 66 64 92q4 0 8 3l8 2l105 2h104 v354v356h-104h-105l-8 4q-63 18 -72 82q-1 5 0 11q0 11 2 24q14 59 80 74h164q164 0 184 -10q18 -8 33 -25q12 -16 19 -37q2 -8 2 -422v-411h104l105 -2l8 -2q43 -12 61 -52q10 -18 10 -43t-10 -43q-18 -39 -61 -51l-10 -4h-306h-303l-10 4q-64 31 -72 94zM508 1458 q0 57 6 76q6 18 23 35q23 20 51 26l69 2q68 0 88 -10q29 -14 43 -45q10 -20 11 -84q0 -63 -11 -84q-14 -31 -43 -45q-20 -10 -86 -10l-77 4q-4 0 -11 2q-18 6 -34 23q-16 18 -23 34q-6 19 -6 76z" />
<glyph unicode="&#xed;" d="M463 2312l2 25q10 31 33 51q23 16 49 20h113q117 0 137 -8q29 -14 43 -45q10 -20 10 -43q0 -16 -49 -266q-49 -252 -51 -260q-6 -18 -23 -35q-25 -27 -59 -31l-37 2q-4 2 -6 2q-20 8 -37 25q-18 16 -25 37q-2 8 -51 260q-49 250 -49 266zM315 98q0 66 64 92q4 0 8 3l8 2 l105 2h104v354v356h-104h-105l-8 4q-63 18 -72 82q-1 5 0 11q0 11 2 24q14 59 80 74h164q164 0 184 -10q18 -8 33 -25q12 -16 19 -37q2 -8 2 -422v-411h104l105 -2l8 -2q43 -12 61 -52q10 -18 10 -43t-10 -43q-18 -39 -61 -51l-10 -4h-306h-303l-10 4q-64 31 -72 94z M508 1458q0 57 6 76q6 18 23 35q23 20 51 26l69 2q68 0 88 -10q29 -14 43 -45q10 -20 11 -84q0 -63 -11 -84q-14 -31 -43 -45q-20 -10 -86 -10l-77 4q-4 0 -11 2q-18 6 -34 23q-16 18 -23 34q-6 19 -6 76z" />
<glyph unicode="&#xee;" d="M174 1815l4 35q2 6 6 12l392 752q14 23 34 33q16 8 31 10h31q33 -6 55 -31q10 -8 14 -16l385 -744q14 -29 13 -59q-8 -63 -70 -82l-16 -4q-27 -4 -54 10q-16 6 -26 18q-8 8 -127 187l-154 231l-37 51l-153 -229q-154 -231 -162 -240q-31 -31 -80 -28q-61 8 -82 65 q-4 13 -4 29zM315 98q0 66 64 92q4 0 8 3l8 2l105 2h104v354v356h-104h-105l-8 4q-63 18 -72 82q-1 5 0 11q0 11 2 24q14 59 80 74h164q164 0 184 -10q18 -8 33 -25q12 -16 19 -37q2 -8 2 -422v-411h104l105 -2l8 -2q43 -12 61 -52q10 -18 10 -43t-10 -43q-18 -39 -61 -51 l-10 -4h-306h-303l-10 4q-64 31 -72 94zM508 1458q0 57 6 76q6 18 23 35q23 20 51 26l69 2q68 0 88 -10q29 -14 43 -45q10 -20 11 -84q0 -63 -11 -84q-14 -31 -43 -45q-20 -10 -86 -10l-77 4q-4 0 -11 2q-18 6 -34 23q-16 18 -23 34q-6 19 -6 76z" />
<glyph unicode="&#xf1;" d="M219 1448v65l2 143q12 98 80 170q74 76 178 88q51 6 101 -8q29 -6 53 -18q74 -37 117 -105q35 -53 45 -114q4 -16 4 -92l2 -74l4 -12q14 -43 51 -62q18 -8 41 -8q18 2 37 10q31 14 45 47q10 18 10 97q0 -6 0 53q0 131 10 151q14 29 45 43q20 10 43 11l35 -7l8 -4 q31 -14 46 -43q10 -20 10 -88v-69q0 -131 -4 -148q-8 -43 -25 -82q-59 -121 -194 -157q-31 -8 -62 -9q-129 -6 -221 97q-51 55 -68 127q-8 31 -8 114l-2 76l-4 10q-14 41 -51 62q-18 8 -41 8q-57 -4 -82 -55q-8 -20 -8 -99q0 8 -2 -53q0 -131 -11 -149q-14 -31 -43 -45 q-20 -10 -43 -11q-25 0 -45 11q-29 14 -43 45q-10 18 -10 84zM219 82v940q6 29 29 51q23 23 51 29q8 2 17 1q13 0 26 -3q12 -4 25 -10q29 -18 41 -48q6 -18 6 -63l2 -41l96 61q98 63 117 74q45 23 98 29l182 -2h2q98 -16 166 -86q70 -72 82 -172l25 -740l-2 -28 q-16 -57 -74 -72q-12 -2 -27 -2q-59 4 -84 57q-8 18 -12 172q-2 25 -8 224q-12 367 -14 376q-10 53 -64 72l-12 4h-72q-80 0 -98 -8q-8 -4 -156 -98l-145 -94l-2 -312q0 -319 -11 -338q-14 -31 -43 -45q-25 -11 -47 -10h-8q-10 2 -22 6q-18 6 -35 23q-23 22 -29 53z" />
<glyph unicode="&#xf2;" d="M-50 1833q2 14 11 26q20 45 71 53q6 2 111 3q113 0 131 -7q16 -6 33 -20q8 -8 202 -258q193 -248 199 -254l8 -16q18 -47 -8 -91l-22 -24q-8 -6 -17 -10q-20 -10 -45 -11q-31 0 -55 19q-8 4 -299 254t-299 258q-27 33 -21 78zM219 553q0 215 2 233q12 96 78 166 q39 41 104 90q61 47 144 60h160q147 0 159 -2q31 -4 58 -15q47 -18 82 -45q70 -59 92 -82q74 -72 86 -176q2 -16 2 -231q0 -217 -2 -236q-14 -100 -86 -172q-23 -23 -92 -80q-51 -41 -121 -57q-31 -6 -183 -6t-184 6q-63 14 -117 55q-68 53 -102 91q-68 70 -78 170 q-2 14 -2 231zM416 553q0 -225 8 -242q10 -20 59 -61q43 -37 54 -43q20 -10 90 -10h75q143 0 160 8q14 6 62 47q51 43 61 70l4 12v217q0 215 -2 223q-6 20 -18 37l-92 80q-12 8 -29 12q-6 2 -143 4q-141 0 -156 -6q-16 -6 -29 -14l-43 -39q-49 -41 -57 -68l-4 -10v-217z" />
<glyph unicode="&#xf3;" d="M432 1816l2 25q10 31 33 51q23 16 49 20h113q117 0 137 -8q29 -14 43 -45q10 -20 10 -43q0 -16 -49 -266q-49 -252 -51 -260q-6 -18 -23 -35q-25 -27 -59 -31l-37 2q-4 2 -6 2q-20 8 -37 25q-18 16 -25 37q-2 8 -51 260q-49 250 -49 266zM219 553q0 215 2 233 q12 96 78 166q39 41 104 90q61 47 144 60h160q147 0 159 -2q31 -4 58 -15q47 -18 82 -45q70 -59 92 -82q74 -72 86 -176q2 -16 2 -231q0 -217 -2 -236q-14 -100 -86 -172q-23 -23 -92 -80q-51 -41 -121 -57q-31 -6 -183 -6t-184 6q-63 14 -117 55q-68 53 -102 91 q-68 70 -78 170q-2 14 -2 231zM416 553q0 -225 8 -242q10 -20 59 -61q43 -37 54 -43q20 -10 90 -10h75q143 0 160 8q14 6 62 47q51 43 61 70l4 12v217q0 215 -2 223q-6 20 -18 37l-92 80q-12 8 -29 12q-6 2 -143 4q-141 0 -156 -6q-16 -6 -29 -14l-43 -39q-49 -41 -57 -68 l-4 -10v-217z" />
<glyph unicode="&#xf4;" d="M143 1319l4 35q2 6 6 12l392 752q14 23 34 33q16 8 31 10h31q33 -6 55 -31q10 -8 14 -16l385 -744q14 -29 13 -59q-8 -63 -70 -82l-16 -4q-27 -4 -54 10q-16 6 -26 18q-8 8 -127 187l-154 231l-37 51l-153 -229q-154 -231 -162 -240q-31 -31 -80 -28q-61 8 -82 65 q-4 13 -4 29zM219 553q0 215 2 233q12 96 78 166q39 41 104 90q61 47 144 60h160q147 0 159 -2q31 -4 58 -15q47 -18 82 -45q70 -59 92 -82q74 -72 86 -176q2 -16 2 -231q0 -217 -2 -236q-14 -100 -86 -172q-23 -23 -92 -80q-51 -41 -121 -57q-31 -6 -183 -6t-184 6 q-63 14 -117 55q-68 53 -102 91q-68 70 -78 170q-2 14 -2 231zM416 553q0 -225 8 -242q10 -20 59 -61q43 -37 54 -43q20 -10 90 -10h75q143 0 160 8q14 6 62 47q51 43 61 70l4 12v217q0 215 -2 223q-6 20 -18 37l-92 80q-12 8 -29 12q-6 2 -143 4q-141 0 -156 -6 q-16 -6 -29 -14l-43 -39q-49 -41 -57 -68l-4 -10v-217z" />
<glyph unicode="&#xf5;" d="M143 1446v65l2 143q12 98 80 170q74 76 178 88q51 6 101 -8q29 -6 53 -18q74 -37 117 -105q35 -53 45 -114q4 -16 4 -92l2 -74l4 -12q14 -43 51 -62q18 -8 41 -8q18 2 37 10q31 14 45 47q10 18 10 97q0 -6 0 53q0 131 10 151q14 29 45 43q20 10 43 11l35 -7l8 -4 q31 -14 46 -43q10 -20 10 -88v-69q0 -131 -4 -148q-8 -43 -25 -82q-59 -121 -194 -157q-31 -8 -62 -9q-129 -6 -221 97q-51 55 -68 127q-8 31 -8 114l-2 76l-4 10q-14 41 -51 62q-18 8 -41 8q-57 -4 -82 -55q-8 -20 -8 -99q0 8 -2 -53q0 -131 -11 -149q-14 -31 -43 -45 q-20 -10 -43 -11q-25 0 -45 11q-29 14 -43 45q-10 18 -10 84zM219 553q0 215 2 233q12 96 78 166q39 41 104 90q61 47 144 60h160q147 0 159 -2q31 -4 58 -15q47 -18 82 -45q70 -59 92 -82q74 -72 86 -176q2 -16 2 -231q0 -217 -2 -236q-14 -100 -86 -172q-23 -23 -92 -80 q-51 -41 -121 -57q-31 -6 -183 -6t-184 6q-63 14 -117 55q-68 53 -102 91q-68 70 -78 170q-2 14 -2 231zM416 553q0 -225 8 -242q10 -20 59 -61q43 -37 54 -43q20 -10 90 -10h75q143 0 160 8q14 6 62 47q51 43 61 70l4 12v217q0 215 -2 223q-6 20 -18 37l-92 80 q-12 8 -29 12q-6 2 -143 4q-141 0 -156 -6q-16 -6 -29 -14l-43 -39q-49 -41 -57 -68l-4 -10v-217z" />
<glyph unicode="&#xf6;" d="M219 586l2 82q4 41 23 73q8 10 176 252q72 102 86 119q59 59 143 72h103q98 -12 159 -90q8 -10 52 -70l112 -160l76 -108q27 -41 33 -88l2 -82q-2 -68 -4 -82q-8 -39 -29 -70q-4 -6 -94 -133l-115 -164q-25 -35 -33 -45q-61 -78 -159 -90h-101q-98 12 -159 90l-242 344 q-18 29 -27 68q-4 14 -4 82zM219 1235v199q6 29 29 51q23 23 51 28l43 -2l18 -6q29 -14 43 -45q10 -20 11 -86q0 8 0 -33q2 -102 -6 -122q-14 -41 -56 -58q-16 -6 -37 -6q-23 0 -41 8q-45 23 -55 72zM414 541l78 -111l114 -164q37 -51 41 -55q6 -6 15 -10l8 -4h30h33l8 4 q8 4 15 10q4 4 69 96l115 164l49 70v51q0 51 -2 55t-47 68l-113 159q-66 94 -71 101q-6 6 -15 10l-8 4h-28h-35q-12 -4 -23 -12q-4 -6 -39 -57l-114 -162l-78 -113v-51zM991 1235v199q6 29 29 51q20 23 49 28l43 -2q8 -2 18 -6q31 -14 46 -45q10 -20 10 -86q0 8 0 -33 q0 -102 -6 -122q-14 -41 -56 -58q-16 -6 -37 -6q-25 0 -43 8q-45 23 -53 72z" />
<glyph unicode="&#xf9;" d="M409 1833q2 14 11 26q20 45 71 53q6 2 111 3q113 0 131 -7q16 -6 33 -20q8 -8 202 -258q193 -248 199 -254l8 -16q18 -47 -8 -91l-22 -24q-8 -6 -17 -10q-20 -10 -45 -11q-31 0 -55 19q-8 4 -299 254t-299 258q-27 33 -21 78zM219 999q0 27 8 45q20 47 74 58l41 -2 q53 -16 70 -72q2 -10 14 -377q12 -369 14 -379q10 -53 64 -71l12 -4h72q80 0 96 8q10 4 158 98l147 96v308q0 315 6 331l9 17q12 23 34 35q16 10 37 12q5 1 10 0l31 -4q10 -2 21 -8q23 -12 34 -35q10 -16 13 -35l2 -475q0 -465 -2 -471q-8 -23 -21 -37q-20 -27 -51 -33 q-12 -3 -25 -3l-24 3l-25 10q-31 16 -41 47q-6 16 -8 64v41l-98 -64q-119 -76 -154 -86q-31 -10 -61 -14h-182h-2q-100 18 -166 86q-70 74 -82 174z" />
<glyph unicode="&#xfa;" d="M891 1816l2 25q10 31 33 51q23 16 49 20h113q117 0 137 -8q29 -14 43 -45q10 -20 10 -43q0 -16 -49 -266q-49 -252 -51 -260q-6 -18 -23 -35q-25 -27 -59 -31l-37 2q-4 2 -6 2q-20 8 -37 25q-18 16 -25 37q-2 8 -51 260q-49 250 -49 266zM219 999q0 27 8 45q20 47 74 58 l41 -2q53 -16 70 -72q2 -10 14 -377q12 -369 14 -379q10 -53 64 -71l12 -4h72q80 0 96 8q10 4 158 98l147 96v308q0 315 6 331l9 17q12 23 34 35q16 10 37 12q5 1 10 0l31 -4q10 -2 21 -8q23 -12 34 -35q10 -16 13 -35l2 -475q0 -465 -2 -471q-8 -23 -21 -37 q-20 -27 -51 -33q-12 -3 -25 -3l-24 3l-25 10q-31 16 -41 47q-6 16 -8 64v41l-98 -64q-119 -76 -154 -86q-31 -10 -61 -14h-182h-2q-100 18 -166 86q-70 74 -82 174z" />
<glyph unicode="&#xfb;" d="M602 1321l4 35q2 6 6 12l392 752q14 23 34 33q16 8 31 10h31q33 -6 55 -31q10 -8 14 -16l385 -744q14 -29 13 -59q-8 -63 -70 -82l-16 -4q-27 -4 -54 10q-16 6 -26 18q-8 8 -127 187l-154 231l-37 51l-153 -229q-154 -231 -162 -240q-31 -31 -80 -28q-61 8 -82 65 q-4 13 -4 29zM219 999q0 27 8 45q20 47 74 58l41 -2q53 -16 70 -72q2 -10 14 -377q12 -369 14 -379q10 -53 64 -71l12 -4h72q80 0 96 8q10 4 158 98l147 96v308q0 315 6 331l9 17q12 23 34 35q16 10 37 12q5 1 10 0l31 -4q10 -2 21 -8q23 -12 34 -35q10 -16 13 -35l2 -475 q0 -465 -2 -471q-8 -23 -21 -37q-20 -27 -51 -33q-12 -3 -25 -3l-24 3l-25 10q-31 16 -41 47q-6 16 -8 64v41l-98 -64q-119 -76 -154 -86q-31 -10 -61 -14h-182h-2q-100 18 -166 86q-70 74 -82 174z" />
<glyph unicode="&#xfc;" d="M219 1104q10 49 51 70q16 8 31 10h31q31 -4 51 -27q20 -18 29 -47q2 -6 2 -420q2 -414 4 -420q12 -45 53 -63q18 -10 94 -10h137q213 0 232 10q39 18 53 63q2 6 2 420t2 420q14 45 51 64q39 20 80 6q20 -8 37 -27q14 -14 21 -31q6 -18 6 -293q0 63 0 -143q0 -408 -2 -428 q-6 -49 -29 -94q-63 -127 -203 -158l-24 -4q-20 -2 -226 -2q-207 0 -221 2q-145 16 -221 141q-33 55 -39 119zM412 1235v199q6 29 28 51q23 23 52 28l43 -2l18 -6q29 -14 43 -45q10 -20 10 -86q0 8 0 -33q2 -102 -6 -122q-14 -41 -55 -58q-16 -6 -37 -6q-23 0 -41 8 q-45 23 -55 72zM797 1235v199q6 29 28 51q23 23 52 28l41 -2q8 -2 20 -6q29 -14 43 -45q10 -20 10 -86q0 8 0 -33q0 -102 -6 -122q-14 -41 -55 -58q-16 -6 -37 -6q-23 0 -43 8q-43 23 -53 72z" />
<glyph unicode="&#xfd;" d="M121 1818l2 25q10 31 33 51q23 16 49 20h113q117 0 137 -8q29 -14 43 -45q10 -20 10 -43q0 -16 -49 -266q-49 -252 -51 -260q-6 -18 -23 -35q-25 -27 -59 -31l-37 2q-4 2 -6 2q-20 8 -37 25q-18 16 -25 37q-2 8 -51 260q-49 250 -49 266zM219 -313q0 68 72 94q8 2 117 4 h110l64 147l65 150h-24q-43 0 -68 14q-23 12 -35 35l-295 674q-6 18 -6 117q0 100 6 116q6 18 23 35q23 23 51 29q8 2 17 1q13 0 26 -3q14 -4 25 -10q20 -12 34 -35q4 -8 7 -17q6 -16 6 -102v-76l129 -291l127 -290h32h33l127 290l127 291v76q0 86 6 102q6 18 25 35 q16 16 35 25q15 5 32 4h11q12 0 22 -4q18 -8 35 -25q18 -16 25 -35q6 -16 6 -116t-8 -121l-512 -1166q-18 -29 -52 -41q-16 -6 -172 -6h-143l-8 2q-68 23 -72 97z" />
<glyph unicode="&#x152;" horiz-adv-x="2928" d="M1683 0v758v758h438q438 0 447 -3q63 -12 78 -73q2 -10 2 -23q0 -63 -58 -90q-10 -4 -22 -6q-8 -2 -348 -2h-342v-232v-231h153q158 0 178 -10q29 -14 43 -45q10 -18 11 -43q0 -23 -11 -43q-14 -29 -43 -45q-20 -8 -88 -8q-6 0 -90 -3h-153v-231v-231h342q340 0 348 -2 q63 -12 78 -74q2 -10 2 -23q0 -66 -60 -90l-20 -6l-447 -2h-438zM221 707v96v6q8 61 29 115l235 471q49 80 138 106q23 8 49 12q10 2 28 3q88 0 160 -58q23 -16 39 -39q12 -14 21 -28q8 -12 118 -236q111 -221 119 -240q29 -80 29 -161q0 -23 -2 -45q-6 -39 -17 -76 q-10 -37 -129 -275q-111 -221 -118 -233q-14 -25 -35 -47q-76 -78 -177 -78q-24 0 -49 4q-37 6 -69 23q-66 31 -105 94l-235 471q-21 54 -29 115zM418 719q4 -29 14 -51q4 -12 113 -230q106 -217 114 -225q12 -12 29 -14q8 -3 16 -3l21 5q10 4 18 12q6 8 68 131l111 221 q49 96 55 113q13 39 12 79v11v8q-4 31 -12 62q-6 16 -55 112l-111 221q-61 123 -68 129q-12 12 -28 17q-7 1 -13 1q-13 0 -24 -5q-10 -4 -19 -13q-8 -6 -114 -223q-109 -217 -113 -229q-10 -23 -14 -51v-76v-2z" />
<glyph unicode="&#x153;" horiz-adv-x="2928" d="M1683 553q0 215 2 233q12 96 78 166q25 25 98 86q63 53 150 64h153q38 1 68 0q89 0 106 -4q4 0 13 -2q68 -14 121 -58q74 -61 96 -86q59 -61 76 -143q6 -31 6 -166v-14q0 -141 -10 -162q-10 -20 -27 -33q-14 -12 -37 -18q-8 -2 -352 -4h-346l2 -39q0 -45 8 -62 q10 -20 59 -61q49 -43 70 -51l10 -2h271q274 -2 290 -9q57 -23 60 -90q0 -66 -60 -90l-20 -6h-555q-84 10 -148 59q-68 53 -102 91q-68 70 -78 170q-2 14 -2 231zM1878 608h288h287v80q0 86 -10 107q-6 10 -12 18t-47 43q-49 41 -70 47l-8 2l-135 2q-141 0 -158 -6 q-16 -6 -64 -45q-41 -35 -49 -43q-10 -14 -16 -33l-4 -10v-82zM219 553q0 215 2 233q12 96 78 166q39 41 104 90q61 47 144 60h160q147 0 159 -2q31 -4 58 -15q47 -18 82 -45q70 -59 92 -82q74 -72 86 -176q2 -16 2 -231q0 -217 -2 -236q-14 -100 -86 -172q-23 -23 -92 -80 q-51 -41 -121 -57q-31 -6 -183 -6t-184 6q-63 14 -117 55q-68 53 -102 91q-68 70 -78 170q-2 14 -2 231zM416 553q0 -225 8 -242q10 -20 59 -61q43 -37 54 -43q20 -10 90 -10h75q143 0 160 8q14 6 62 47q51 43 61 70l4 12v217q0 215 -2 223q-6 20 -18 37l-92 80 q-12 8 -29 12q-6 2 -143 4q-141 0 -156 -6q-16 -6 -29 -14l-43 -39q-49 -41 -57 -68l-4 -10v-217z" />
<glyph unicode="&#x2c6;" d="M219 342l4 35q2 6 6 12l392 752q14 23 34 33q16 8 31 10h31q33 -6 55 -31q10 -8 14 -16l385 -744q14 -29 13 -59q-8 -63 -70 -82l-16 -4q-27 -4 -54 10q-16 6 -26 18q-8 8 -127 187l-154 231l-37 51l-153 -229q-154 -231 -162 -240q-31 -31 -80 -28q-61 8 -82 65 q-4 13 -4 29z" />
<glyph unicode="&#x2dc;" d="M-483 345v65l2 143q12 98 80 170q74 76 178 88q51 6 101 -8q29 -6 53 -18q74 -37 117 -105q35 -53 45 -114q4 -16 4 -92l2 -74l4 -12q14 -43 51 -62q18 -8 41 -8q18 2 37 10q31 14 45 47q10 18 10 97q0 -6 0 53q0 131 10 151q14 29 45 43q20 10 43 11l35 -7l8 -4 q31 -14 46 -43q10 -20 10 -88v-69q0 -131 -4 -148q-8 -43 -25 -82q-59 -121 -194 -157q-31 -8 -62 -9q-129 -6 -221 97q-51 55 -68 127q-8 31 -8 114l-2 76l-4 10q-14 41 -51 62q-18 8 -41 8q-57 -4 -82 -55q-8 -20 -8 -99q0 8 -2 -53q0 -131 -11 -149q-14 -31 -43 -45 q-20 -10 -43 -11q-25 0 -45 11q-29 14 -43 45q-10 18 -10 84z" />
<glyph unicode="&#x2000;" horiz-adv-x="1327" />
<glyph unicode="&#x2001;" horiz-adv-x="2656" />
<glyph unicode="&#x2002;" horiz-adv-x="1327" />
<glyph unicode="&#x2003;" horiz-adv-x="2656" />
<glyph unicode="&#x2004;" horiz-adv-x="884" />
<glyph unicode="&#x2005;" horiz-adv-x="663" />
<glyph unicode="&#x2006;" horiz-adv-x="442" />
<glyph unicode="&#x2007;" horiz-adv-x="442" />
<glyph unicode="&#x2008;" horiz-adv-x="331" />
<glyph unicode="&#x2009;" horiz-adv-x="530" />
<glyph unicode="&#x200a;" horiz-adv-x="147" />
<glyph unicode="&#x2010;" d="M219 717q0 57 6 76q6 16 23 34q23 20 51 27l408 2q397 0 405 -2q23 -8 37 -20q16 -12 27 -33q10 -20 10 -84q0 -63 -10 -84q-10 -20 -27 -33q-14 -12 -37 -20q-8 -2 -403 -2l-406 2q-20 2 -37 12q-20 12 -35 35q-4 6 -6 14q-6 19 -6 76z" />
<glyph unicode="&#x2011;" d="M219 717q0 57 6 76q6 16 23 34q23 20 51 27l408 2q397 0 405 -2q23 -8 37 -20q16 -12 27 -33q10 -20 10 -84q0 -63 -10 -84q-10 -20 -27 -33q-14 -12 -37 -20q-8 -2 -403 -2l-406 2q-20 2 -37 12q-20 12 -35 35q-4 6 -6 14q-6 19 -6 76z" />
<glyph unicode="&#x2012;" d="M219 717q0 57 6 76q6 16 23 34q23 20 51 27l408 2q397 0 405 -2q23 -8 37 -20q16 -12 27 -33q10 -20 10 -84q0 -63 -10 -84q-10 -20 -27 -33q-14 -12 -37 -20q-8 -2 -403 -2l-406 2q-20 2 -37 12q-20 12 -35 35q-4 6 -6 14q-6 19 -6 76z" />
<glyph unicode="&#x2013;" horiz-adv-x="1024" d="M219 578v278h526v-278h-526z" />
<glyph unicode="&#x2014;" horiz-adv-x="2048" d="M219 578v278h1550v-278h-1550z" />
<glyph unicode="&#x2018;" d="M315 1434q2 14 11 26q20 45 71 53q6 2 111 3q113 0 131 -7q16 -6 33 -20q8 -8 202 -258q193 -248 199 -254l8 -16q18 -47 -8 -91l-22 -24q-8 -6 -17 -10q-20 -10 -45 -11q-31 0 -55 19q-8 4 -299 254t-299 258q-27 33 -21 78z" />
<glyph unicode="&#x2019;" d="M508 741v340v351q4 18 12 34q14 23 35 35q14 8 33 12l117 3q117 -2 137 -11q29 -14 43 -45q6 -10 8 -18l2 -39l-201 -684q-12 -33 -47 -49q-25 -12 -53 -8l-29 6q-41 18 -55 63z" />
<glyph unicode="&#x201c;" d="M219 1405v55v56h483h484v-72v-70l-6 -26l-4 -29h-5h-4l-39 -205l-43 -215q-12 -53 -71 -72h-45h-2q-55 14 -70 70q-2 6 -43 213l-41 209h-113h-110l-41 -209q-41 -207 -43 -213q-14 -53 -70 -70q-8 -2 -22 -2q-20 0 -37 6q-43 16 -58 58q-2 10 -38 201l-50 251z" />
<glyph unicode="&#x201d;" d="M219 1405v55v56h483h484v-72v-70l-6 -26l-4 -29h-5h-4l-39 -205l-43 -215q-12 -53 -71 -72h-45h-2q-55 14 -70 70q-2 6 -43 213l-41 209h-113h-110l-41 -209q-41 -207 -43 -213q-14 -53 -70 -70q-8 -2 -22 -2q-20 0 -37 6q-43 16 -58 58q-2 10 -38 201l-50 251z" />
<glyph unicode="&#x2026;" horiz-adv-x="4392" d="M3437 328v198q6 31 29 54q23 20 51 26l117 2q117 0 137 -10q29 -14 43 -45q10 -20 10 -88q0 2 0 -37q0 -106 -10 -127q-14 -29 -43 -43q-20 -10 -88 -10h-47q-115 -2 -136 4q-18 8 -34 24q-23 23 -29 52zM1972 328v198q6 31 29 54q23 20 51 26l117 2q117 0 137 -10 q29 -14 43 -45q10 -20 10 -88q0 2 0 -37q0 -106 -10 -127q-14 -29 -43 -43q-20 -10 -88 -10h-47q-115 -2 -136 4q-18 8 -34 24q-23 23 -29 52zM508 328v198q6 31 29 54q23 20 51 26l117 2q117 0 137 -10q29 -14 43 -45q10 -20 10 -88q0 2 0 -37q0 -106 -10 -127 q-14 -29 -43 -43q-20 -10 -88 -10h-47q-115 -2 -136 4q-18 8 -34 24q-23 23 -29 52z" />
<glyph unicode="&#x202f;" horiz-adv-x="530" />
<glyph unicode="&#x2039;" d="M219 698v117q4 18 12 33q12 20 31 33l778 456q12 8 27 11q6 2 20 2l35 -7l8 -4q12 -6 25 -18q12 -12 19 -25q10 -20 10 -45q0 -49 -39 -77q-8 -6 -357 -211l-348 -205l348 -205q348 -205 357 -211q39 -29 39 -78l-6 -37l-4 -8q-6 -12 -19 -24q-12 -12 -25 -19 q-23 -10 -47 -10q-23 0 -43 10l-778 459q-18 12 -31 31q-8 14 -12 32z" />
<glyph unicode="&#x203a;" d="M219 266q0 16 4 27q10 33 39 51q10 6 356 209l345 205l-345 203q-346 203 -356 210q-29 18 -39 50q-4 12 -4 26l4 37q2 6 6 12q6 12 19 25q12 12 22 16q14 8 27 11q6 2 18 2l37 -7l4 -2l781 -458q23 -14 34 -35q8 -14 13 -33v-117q-4 -18 -13 -32q-12 -20 -34 -33 l-781 -459q-18 -8 -45 -8q-37 2 -63 29q-12 12 -19 24q-12 20 -10 47z" />
<glyph unicode="&#x205f;" horiz-adv-x="663" />
<glyph unicode="&#x2122;" horiz-adv-x="2928" d="M1683 416v387v713h121h123l14 -19l113 -164l106 -151l6 -6l119 170l119 170h123h123v-717q0 -719 -2 -725q-14 -45 -54 -64q-23 -11 -47 -10h-8q-10 2 -20 6q-18 6 -33 21q-20 18 -31 49q-2 6 -2 588v579l-94 -135l-96 -135v-29q0 -49 -13 -72q-12 -18 -32 -32 q-24 -15 -56 -15h-8q-23 2 -39 13q-29 18 -41 47q-6 18 -6 55l-2 35l-94 133l-92 133l-2 -579q0 -582 -2 -588q-12 -45 -52 -64q-25 -11 -47 -10h-8q-10 2 -22 6q-18 6 -35 23q-16 18 -23 34q-6 19 -6 353zM219 1380v136h483h484v-136q0 -145 -8 -163q-14 -39 -54 -56 q-16 -6 -37 -6q-25 0 -43 8q-35 18 -49 54q-6 18 -6 65v37h-94h-96v-619q0 -621 -2 -626q-12 -45 -52 -64q-25 -11 -47 -10h-8q-10 2 -22 6q-18 6 -35 23q-16 18 -23 34q-6 18 -6 340v302v614h-96h-94v-37q0 -47 -6 -65q-14 -39 -56 -56q-16 -6 -37 -6q-23 0 -41 8 q-37 18 -49 54q-6 18 -6 163z" />
<glyph unicode="&#xe000;" horiz-adv-x="1105" d="M0 1105h1105v-1105h-1105v1105z" />
<glyph unicode="&#xfb01;" horiz-adv-x="2928" d="M1779 98q0 66 64 92q4 0 8 3l8 2l105 2h104v354v356h-104h-105l-8 4q-63 18 -72 82q-1 5 0 11q0 11 2 24q14 59 80 74h164q164 0 184 -10q18 -8 33 -25q12 -16 19 -37q2 -8 2 -422v-411h104l105 -2l8 -2q43 -12 61 -52q10 -18 10 -43t-10 -43q-18 -39 -61 -51l-10 -4 h-306h-303l-10 4q-64 31 -72 94zM1972 1458q0 57 6 76q6 18 23 35q23 20 51 26l69 2q68 0 88 -10q29 -14 43 -45q10 -20 11 -84q0 -63 -11 -84q-14 -31 -43 -45q-20 -10 -86 -10l-77 4q-4 0 -11 2q-18 6 -34 23q-16 18 -23 34q-6 19 -6 76zM266 1022q2 4 2 8q12 43 51 62 q20 10 82 10l56 2l2 49q0 49 2 66q12 74 49 133q43 68 111 110q72 45 155 51q6 2 137 3q141 0 160 -7q16 -6 31 -20q25 -25 31 -57v-25q-4 -35 -29 -59q-16 -16 -33 -23q-18 -6 -153 -6q-125 0 -136 -2q-82 -10 -116 -84l-6 -14q-6 -23 -9 -72v-43h101q100 0 108 -2 q63 -12 78 -74q2 -12 2 -22q0 -63 -57 -91q-10 -4 -23 -6q-8 -2 -108 -2h-101v-413q0 -414 -2 -420q-6 -23 -20 -37q-12 -16 -33 -27q-23 -11 -47 -10h-8q-10 2 -21 6q-18 6 -35 23q-16 18 -22 34q-8 18 -8 293v-14v156v409h-56q-61 0 -82 11q-39 18 -51 61z" />
<glyph unicode="&#xfb02;" horiz-adv-x="2928" d="M1779 98q0 66 64 92q4 0 8 3l8 2l105 2h104v561v561h-104h-105l-8 4q-63 18 -72 82q-1 6 0 12q0 12 2 23q14 59 80 73l164 3q164 -2 184 -11q39 -20 52 -63q2 -8 2 -627v-618h104l105 -2l8 -2q43 -12 61 -52q10 -18 10 -43t-10 -43q-18 -39 -61 -51l-10 -4h-306h-303 l-10 4q-64 31 -72 94zM266 1022q2 4 2 8q12 43 51 62q20 10 82 10l56 2l2 49q0 49 2 66q12 74 49 133q43 68 111 110q72 45 155 51q6 2 137 3q141 0 160 -7q16 -6 31 -20q25 -25 31 -57v-25q-4 -35 -29 -59q-16 -16 -33 -23q-18 -6 -153 -6q-125 0 -136 -2q-82 -10 -116 -84 l-6 -14q-6 -23 -9 -72v-43h101q100 0 108 -2q63 -12 78 -74q2 -12 2 -22q0 -63 -57 -91q-10 -4 -23 -6q-8 -2 -108 -2h-101v-413q0 -414 -2 -420q-6 -23 -20 -37q-12 -16 -33 -27q-23 -11 -47 -10h-8q-10 2 -21 6q-18 6 -35 23q-16 18 -22 34q-8 18 -8 293v-14v156v409h-56 q-61 0 -82 11q-39 18 -51 61z" />
<glyph unicode="&#xfb03;" horiz-adv-x="4392" d="M3244 98q0 66 64 92q4 0 8 3l8 2l105 2h104v354v356h-104h-105l-8 4q-63 18 -72 82q-1 5 0 11q0 11 2 24q14 59 80 74h164q164 0 184 -10q18 -8 33 -25q12 -16 19 -37q2 -8 2 -422v-411h104l105 -2l8 -2q43 -12 61 -52q10 -18 10 -43t-10 -43q-18 -39 -61 -51l-10 -4 h-306h-303l-10 4q-64 31 -72 94zM3437 1458q0 57 6 76q6 18 23 35q23 20 51 26l69 2q68 0 88 -10q29 -14 43 -45q10 -20 11 -84q0 -63 -11 -84q-14 -31 -43 -45q-20 -10 -86 -10l-77 4q-4 0 -11 2q-18 6 -34 23q-16 18 -23 34q-6 19 -6 76zM1730 1022q2 4 2 8q12 43 51 62 q20 10 82 10l56 2l2 49q0 49 2 66q12 74 49 133q43 68 111 110q72 45 155 51q6 2 137 3q141 0 160 -7q16 -6 31 -20q25 -25 31 -57v-25q-4 -35 -29 -59q-16 -16 -33 -23q-18 -6 -153 -6q-125 0 -136 -2q-82 -10 -116 -84l-6 -14q-6 -23 -9 -72v-43h101q100 0 108 -2 q63 -12 78 -74q2 -12 2 -22q0 -63 -57 -91q-10 -4 -23 -6q-8 -2 -108 -2h-101v-413q0 -414 -2 -420q-6 -23 -20 -37q-12 -16 -33 -27q-23 -11 -47 -10h-8q-10 2 -21 6q-18 6 -35 23q-16 18 -22 34q-8 18 -8 293v-14v156v409h-56q-61 0 -82 11q-39 18 -51 61zM266 1022 q2 4 2 8q12 43 51 62q20 10 82 10l56 2l2 49q0 49 2 66q12 74 49 133q43 68 111 110q72 45 155 51q6 2 137 3q141 0 160 -7q16 -6 31 -20q25 -25 31 -57v-25q-4 -35 -29 -59q-16 -16 -33 -23q-18 -6 -153 -6q-125 0 -136 -2q-82 -10 -116 -84l-6 -14q-6 -23 -9 -72v-43h101 q100 0 108 -2q63 -12 78 -74q2 -12 2 -22q0 -63 -57 -91q-10 -4 -23 -6q-8 -2 -108 -2h-101v-413q0 -414 -2 -420q-6 -23 -20 -37q-12 -16 -33 -27q-23 -11 -47 -10h-8q-10 2 -21 6q-18 6 -35 23q-16 18 -22 34q-8 18 -8 293v-14v156v409h-56q-61 0 -82 11q-39 18 -51 61z " />
<glyph unicode="&#xfb04;" horiz-adv-x="4392" d="M3244 98q0 66 64 92q4 0 8 3l8 2l105 2h104v561v561h-104h-105l-8 4q-63 18 -72 82q-1 6 0 12q0 12 2 23q14 59 80 73l164 3q164 -2 184 -11q39 -20 52 -63q2 -8 2 -627v-618h104l105 -2l8 -2q43 -12 61 -52q10 -18 10 -43t-10 -43q-18 -39 -61 -51l-10 -4h-306h-303 l-10 4q-64 31 -72 94zM1730 1022q2 4 2 8q12 43 51 62q20 10 82 10l56 2l2 49q0 49 2 66q12 74 49 133q43 68 111 110q72 45 155 51q6 2 137 3q141 0 160 -7q16 -6 31 -20q25 -25 31 -57v-25q-4 -35 -29 -59q-16 -16 -33 -23q-18 -6 -153 -6q-125 0 -136 -2 q-82 -10 -116 -84l-6 -14q-6 -23 -9 -72v-43h101q100 0 108 -2q63 -12 78 -74q2 -12 2 -22q0 -63 -57 -91q-10 -4 -23 -6q-8 -2 -108 -2h-101v-413q0 -414 -2 -420q-6 -23 -20 -37q-12 -16 -33 -27q-23 -11 -47 -10h-8q-10 2 -21 6q-18 6 -35 23q-16 18 -22 34q-8 18 -8 293 v-14v156v409h-56q-61 0 -82 11q-39 18 -51 61zM266 1022q2 4 2 8q12 43 51 62q20 10 82 10l56 2l2 49q0 49 2 66q12 74 49 133q43 68 111 110q72 45 155 51q6 2 137 3q141 0 160 -7q16 -6 31 -20q25 -25 31 -57v-25q-4 -35 -29 -59q-16 -16 -33 -23q-18 -6 -153 -6 q-125 0 -136 -2q-82 -10 -116 -84l-6 -14q-6 -23 -9 -72v-43h101q100 0 108 -2q63 -12 78 -74q2 -12 2 -22q0 -63 -57 -91q-10 -4 -23 -6q-8 -2 -108 -2h-101v-413q0 -414 -2 -420q-6 -23 -20 -37q-12 -16 -33 -27q-23 -11 -47 -10h-8q-10 2 -21 6q-18 6 -35 23 q-16 18 -22 34q-8 18 -8 293v-14v156v409h-56q-61 0 -82 11q-39 18 -51 61z" />
</font>
</defs>
</svg>
